<svg xmlns="http://www.w3.org/2000/svg" width="197" height="48" fill="none"><path fill="#9EA3BF" d="M30.429 2H13.57L0 15.571V32.43L13.571 46H30.43L44 32.429V15.57L30.429 2zM15.904 32.641 7.21 23.947l8.694-8.694c3.286-3.287 8.694-3.287 11.98 0l8.694 8.694-8.694 8.694c-3.286 3.287-8.588 3.287-11.98 0zM63.34 34.24c2.7 0 4.92-1.38 5.61-3.45V34h3.99v-8.1c0-1.83-1.44-3.39-3.39-3.39h-5.7v3.39h4.05c.51 0 .84.33.84.84 0 1.95-2.58 3.84-5.19 3.84-3.48 0-6.24-2.73-6.24-7.08s2.76-6.87 6.33-6.87c2.7 0 4.56 1.47 4.89 3.72H73c-.27-4.5-4.05-7.59-9.33-7.59-5.55 0-10.65 3.57-10.65 10.74s4.95 10.74 10.32 10.74zM74.652 34h4.17V12.31h-4.17V34zm13.165.24c4.65 0 7.98-3.3 7.98-7.8s-3.33-7.8-7.98-7.8-7.98 3.3-7.98 7.8 3.33 7.8 7.98 7.8zm0-3.6c-2.25 0-3.78-1.71-3.78-4.2 0-2.52 1.53-4.23 3.78-4.23s3.78 1.71 3.78 4.23c0 2.49-1.53 4.2-3.78 4.2zm17.311 3.6c4.47 0 7.14-3.09 7.14-7.8s-2.67-7.8-7.08-7.8c-1.89 0-3.36.72-4.2 1.83v-8.16h-4.17V34h4.17v-1.65c.84 1.17 2.4 1.89 4.14 1.89zm-.66-3.6c-2.25 0-3.72-1.68-3.72-4.2 0-2.55 1.47-4.23 3.72-4.23 2.19 0 3.69 1.68 3.69 4.23 0 2.52-1.5 4.2-3.69 4.2zm14.781-12c-4.14 0-6.6 2.43-6.78 5.46h3.72c.06-1.26.99-2.4 2.82-2.4 1.71 0 2.7.87 2.7 2.13 0 .63-.39 1.11-1.14 1.11h-2.55c-3.3 0-5.52 1.8-5.52 4.77 0 2.58 2.01 4.53 4.95 4.53 2.07 0 3.75-.93 4.26-2.34V34h4.14v-9.72c0-3.42-2.79-5.64-6.6-5.64zm-.75 12.57c-1.17 0-2.01-.69-2.01-1.68 0-1.17.9-1.95 2.16-1.95h3.06v.21c0 1.92-1.17 3.42-3.21 3.42zm8.952 2.79h4.17V12.31h-4.17V34zm6.385 0h8.58c4.44 0 7.5-2.28 7.5-6.27 0-2.76-1.62-4.44-3.54-5.19 1.23-.66 2.46-2.16 2.46-4.14 0-3.51-2.85-5.4-6.66-5.4h-8.34v21zm4.44-12.99v-4.44h3.48c2.01 0 2.91.81 2.91 2.22 0 1.41-.9 2.22-2.82 2.22h-3.57zm0 9.09v-5.28h3.75c2.49 0 3.6.96 3.6 2.67s-1.11 2.61-3.6 2.61h-3.75zm18.895-11.46c-4.14 0-6.6 2.43-6.78 5.46h3.72c.06-1.26.99-2.4 2.82-2.4 1.71 0 2.7.87 2.7 2.13 0 .63-.39 1.11-1.14 1.11h-2.55c-3.3 0-5.52 1.8-5.52 4.77 0 2.58 2.01 4.53 4.95 4.53 2.07 0 3.75-.93 4.26-2.34V34h4.14v-9.72c0-3.42-2.79-5.64-6.6-5.64zm-.75 12.57c-1.17 0-2.01-.69-2.01-1.68 0-1.17.9-1.95 2.16-1.95h3.06v.21c0 1.92-1.17 3.42-3.21 3.42zm8.712 2.79h4.2v-8.28c0-1.95 1.29-3.36 3.12-3.36 1.74 0 2.91 1.32 2.91 3.15V34h4.2v-9.42c0-3.48-2.22-5.94-5.64-5.94-2.07 0-3.75.87-4.59 2.34v-2.1h-4.2V34zm26.4 0h5.04l-6.51-9.18 6.03-5.94h-5.28l-5.25 5.16V12.31h-4.2V34h4.2v-4.74l1.68-1.65 4.29 6.39z"/></svg>