<svg xmlns="http://www.w3.org/2000/svg" width="198" height="48" fill="none"><path fill="#9EA3BF" d="M36.307 11.163 35.01 9.866c-1.297-1.383-2.68-2.766-4.408-3.63-1.989-1.038-4.15-.778-6.31-.778H7.952l3.285 4.408H30.86c1.815 0 3.371.346 4.84 1.297.26.086.52.086.606 0zm3.63 7.089-1.297-1.297c-1.297-1.383-2.68-2.766-4.409-3.63-1.988-1.038-4.149-.779-6.31-.779H13.398l3.285 4.409h17.894c1.816 0 3.372.346 4.841 1.297a.551.551 0 0 0 .519 0zM44 25.167l-1.297-1.297c-1.296-1.383-2.68-2.766-4.408-3.63-1.989-1.038-4.15-.779-6.31-.779H18.671l3.285 4.41h16.597c1.815 0 3.371.345 4.84 1.296.26.086.433.173.606 0zM7.607 36.837l1.297 1.297c1.297 1.383 2.68 2.766 4.409 3.63 1.988 1.038 4.149.779 6.31.779h16.338l-3.285-4.409H13.053c-1.815 0-3.37-.346-4.84-1.297-.26-.086-.433-.086-.606 0zm-3.63-7.089 1.296 1.297c1.297 1.383 2.68 2.766 4.409 3.63 1.988 1.038 4.15.779 6.31.779h14.523l-3.285-4.409H9.336c-1.815 0-3.371-.346-4.84-1.297a.551.551 0 0 0-.52 0zM0 22.747l1.297 1.296c1.296 1.383 2.68 2.766 4.408 3.63 1.989 1.038 4.15.779 6.31.779h13.313l-3.285-4.409H5.446c-1.815 0-3.371-.346-4.84-1.296-.26-.087-.433-.087-.606 0zm53.932-8.739V34h4.396v-8.26H66.7v-3.416h-8.372v-4.62h9.66v-3.696H53.932zm25.081 11.2h-6.468c.019-.28.075-.598.168-.952.112-.355.29-.69.532-1.008a3.049 3.049 0 0 1 1.008-.784c.43-.224.962-.336 1.596-.336.971 0 1.69.261 2.156.784.486.523.822 1.288 1.008 2.296zm-6.468 2.52H82.99a10.22 10.22 0 0 0-.28-3.22 7.743 7.743 0 0 0-1.288-2.744 6.171 6.171 0 0 0-2.24-1.904c-.914-.485-1.988-.728-3.22-.728-1.101 0-2.109.196-3.024.588a7.052 7.052 0 0 0-2.324 1.624 6.95 6.95 0 0 0-1.512 2.408 8.442 8.442 0 0 0-.532 3.024c0 1.12.168 2.146.504 3.08a7.17 7.17 0 0 0 1.484 2.408 6.555 6.555 0 0 0 2.324 1.568c.915.355 1.942.532 3.08.532 1.643 0 3.043-.373 4.2-1.12 1.158-.747 2.016-1.988 2.576-3.724h-3.5c-.13.448-.485.877-1.064 1.288-.578.392-1.269.588-2.072.588-1.12 0-1.978-.29-2.576-.868-.597-.579-.924-1.512-.98-2.8zm11.795-3.752c.055-.933.289-1.708.7-2.324a4.77 4.77 0 0 1 1.567-1.484 6.595 6.595 0 0 1 2.128-.784 11.726 11.726 0 0 1 2.408-.252c.728 0 1.466.056 2.212.168.747.093 1.428.29 2.044.588.616.298 1.12.718 1.512 1.26.392.523.588 1.223.588 2.1v7.532c0 .653.038 1.279.112 1.876.075.597.206 1.045.392 1.344h-4.032a9.15 9.15 0 0 1-.196-.672 9.692 9.692 0 0 1-.084-.728 5.18 5.18 0 0 1-2.24 1.372 8.992 8.992 0 0 1-2.632.392c-.69 0-1.334-.084-1.932-.252a4.424 4.424 0 0 1-1.568-.784 3.785 3.785 0 0 1-1.064-1.344c-.242-.542-.364-1.186-.364-1.932 0-.822.14-1.494.42-2.016.3-.542.672-.97 1.12-1.288.467-.318.99-.55 1.568-.7a15.388 15.388 0 0 1 1.792-.392 30.434 30.434 0 0 1 1.764-.224c.58-.056 1.092-.14 1.54-.252.448-.112.803-.27 1.064-.476.262-.224.383-.541.364-.952 0-.43-.074-.765-.224-1.008a1.315 1.315 0 0 0-.56-.588 1.826 1.826 0 0 0-.812-.28 5.326 5.326 0 0 0-.98-.084c-.784 0-1.4.168-1.848.504-.448.336-.709.896-.784 1.68H84.34zm9.183 2.94c-.168.15-.382.27-.644.364-.242.075-.513.14-.812.196a11.3 11.3 0 0 1-.896.14 16.55 16.55 0 0 0-.952.14 7.77 7.77 0 0 0-.896.224c-.28.093-.532.224-.756.392-.205.15-.373.345-.504.588-.13.242-.196.55-.196.924 0 .354.066.653.196.896.131.242.308.438.532.588.224.13.486.224.784.28.3.056.607.084.924.084.784 0 1.391-.13 1.82-.392.43-.262.747-.57.952-.924.206-.373.327-.747.364-1.12.056-.373.084-.672.084-.896v-1.484zm11.263-7.392v-4.34h-3.976v4.34h-2.409v2.66h2.409v8.54c0 .728.121 1.316.364 1.764.242.448.569.793.98 1.036.429.242.914.401 1.456.476.56.093 1.148.14 1.764.14.392 0 .793-.01 1.204-.028.41-.019.784-.056 1.12-.112v-3.08a5.613 5.613 0 0 1-.588.084c-.206.018-.42.028-.644.028-.672 0-1.12-.112-1.344-.336-.224-.224-.336-.672-.336-1.344v-7.168h2.912v-2.66h-2.912zm3.963-5.516V34h3.976v-7.588c0-1.475.243-2.53.728-3.164.486-.654 1.27-.98 2.352-.98.952 0 1.615.299 1.988.896.374.578.56 1.465.56 2.66V34h3.976v-8.904c0-.896-.084-1.708-.252-2.436-.149-.747-.42-1.372-.812-1.876-.392-.523-.933-.924-1.624-1.204-.672-.299-1.54-.448-2.604-.448-.746 0-1.512.196-2.296.588-.784.373-1.428.98-1.932 1.82h-.084v-7.532h-3.976zm25.502 11.2h-6.468a5.19 5.19 0 0 1 .168-.952c.112-.355.289-.69.532-1.008a3.043 3.043 0 0 1 1.008-.784c.429-.224.961-.336 1.596-.336.971 0 1.689.261 2.156.784.485.523.821 1.288 1.008 2.296zm-6.468 2.52h10.444a10.22 10.22 0 0 0-.28-3.22 7.743 7.743 0 0 0-1.288-2.744 6.171 6.171 0 0 0-2.24-1.904c-.915-.485-1.988-.728-3.22-.728-1.101 0-2.109.196-3.024.588a7.049 7.049 0 0 0-2.324 1.624 6.958 6.958 0 0 0-1.512 2.408 8.435 8.435 0 0 0-.532 3.024c0 1.12.168 2.146.504 3.08a7.17 7.17 0 0 0 1.484 2.408 6.555 6.555 0 0 0 2.324 1.568c.915.355 1.941.532 3.08.532 1.643 0 3.043-.373 4.2-1.12 1.157-.747 2.016-1.988 2.576-3.724h-3.5c-.131.448-.485.877-1.064 1.288-.579.392-1.269.588-2.072.588-1.12 0-1.979-.29-2.576-.868-.597-.579-.924-1.512-.98-2.8zm11.962-8.204V34h3.976v-6.524c0-.653.065-1.26.196-1.82s.345-1.046.644-1.456c.317-.43.728-.765 1.232-1.008s1.12-.364 1.848-.364c.243 0 .495.018.756.056.261.018.485.046.672.084v-3.696a3.102 3.102 0 0 0-.868-.14 4.75 4.75 0 0 0-1.456.224c-.467.15-.905.364-1.316.644a4.513 4.513 0 0 0-1.092.98 4.675 4.675 0 0 0-.756 1.232h-.056v-2.688h-3.78zm14.859 10.78v-12.6h3.136c1.083 0 1.988.159 2.716.476.747.299 1.344.737 1.792 1.316.448.579.765 1.279.952 2.1.205.802.308 1.708.308 2.716 0 1.101-.14 2.034-.42 2.8-.28.765-.653 1.39-1.12 1.876a4.144 4.144 0 0 1-1.596 1.008 5.644 5.644 0 0 1-1.848.308h-3.92zm-4.396-16.296V34h8.624c1.531 0 2.856-.252 3.976-.756 1.139-.523 2.081-1.232 2.828-2.128.765-.896 1.335-1.96 1.708-3.192.373-1.232.56-2.576.56-4.032 0-1.662-.233-3.108-.7-4.34-.448-1.232-1.083-2.259-1.904-3.08a7.664 7.664 0 0 0-2.884-1.848c-1.101-.41-2.296-.616-3.584-.616h-8.624zm29.238 11.2h-6.468c.018-.28.074-.598.168-.952.112-.355.289-.69.532-1.008a3.043 3.043 0 0 1 1.008-.784c.429-.224.961-.336 1.596-.336.97 0 1.689.261 2.156.784.485.523.821 1.288 1.008 2.296zm-6.468 2.52h10.444a10.25 10.25 0 0 0-.28-3.22 7.76 7.76 0 0 0-1.288-2.744 6.18 6.18 0 0 0-2.24-1.904c-.915-.485-1.988-.728-3.22-.728-1.102 0-2.11.196-3.024.588a7.049 7.049 0 0 0-2.324 1.624 6.929 6.929 0 0 0-1.512 2.408 8.435 8.435 0 0 0-.532 3.024c0 1.12.168 2.146.504 3.08a7.155 7.155 0 0 0 1.484 2.408 6.546 6.546 0 0 0 2.324 1.568c.914.355 1.941.532 3.08.532 1.642 0 3.042-.373 4.2-1.12 1.157-.747 2.016-1.988 2.576-3.724h-3.5c-.131.448-.486.877-1.064 1.288-.579.392-1.27.588-2.072.588-1.12 0-1.979-.29-2.576-.868-.598-.579-.924-1.512-.98-2.8zM192.948 34l4.9-14.476H193.9l-3.052 9.884h-.056l-3.052-9.884h-4.172L188.524 34h4.424z"/></svg>