<svg xmlns="http://www.w3.org/2000/svg" width="166" height="48" fill="none"><circle cx="22" cy="24.25" r="20.5" stroke="#9EA3BF" stroke-width="3"/><path stroke="#9EA3BF" stroke-width="3" d="M30.132 32.381c-4.14 4.14-8.829 6.842-13.005 7.916-4.214 1.084-7.611.46-9.622-1.552-2.012-2.011-2.636-5.408-1.552-9.622 1.074-4.176 3.776-8.866 7.916-13.005 4.139-4.14 8.829-6.842 13.005-7.916 4.214-1.083 7.61-.46 9.622 1.552 2.011 2.011 2.635 5.408 1.552 9.622-1.074 4.176-3.777 8.866-7.916 13.005z"/><path stroke="#9EA3BF" stroke-width="3" d="M30.131 16.118c4.14 4.14 6.842 8.829 7.916 13.005 1.084 4.214.46 7.611-1.552 9.622-2.011 2.012-5.408 2.636-9.622 1.552-4.176-1.074-8.866-3.776-13.005-7.916-4.14-4.139-6.842-8.829-7.916-13.005-1.083-4.214-.46-7.61 1.552-9.622 2.011-2.011 5.408-2.635 9.622-1.552 4.176 1.074 8.866 3.777 13.005 7.916z"/><path fill="#9EA3BF" d="M62.85 34.24c4.71 0 7.89-2.46 7.89-6.39 0-8.31-11.04-4.77-11.04-9.15 0-1.23 1.11-2.07 2.88-2.07 2.01 0 3.27 1.08 3.42 2.73h4.29c-.12-3.99-3.18-6.6-7.71-6.6-4.26 0-7.26 2.46-7.26 5.94 0 8.25 10.89 5.1 10.89 9.21 0 1.59-1.35 2.43-3.36 2.43-2.22 0-3.63-1.35-3.81-3.48h-4.32c.18 4.47 3.36 7.38 8.13 7.38zm8.91 5.88h4.17v-7.47c.81 1.02 2.28 1.59 3.99 1.59 4.35 0 7.29-3.09 7.29-7.8s-2.7-7.8-6.93-7.8c-1.95 0-3.45.72-4.35 1.89v-1.65h-4.17v21.24zm7.65-9.48c-2.25 0-3.72-1.68-3.72-4.2 0-2.55 1.47-4.23 3.72-4.23 2.19 0 3.69 1.68 3.69 4.23 0 2.52-1.5 4.2-3.69 4.2zM88.219 34h4.17v-8.28c0-1.95 1.29-3.36 3.12-3.36 1.74 0 2.94 1.32 2.94 3.15V34h4.17v-9.42c0-3.48-2.22-5.94-5.61-5.94-2.1 0-3.75.87-4.62 2.34v-8.67h-4.17V34zm26.065-5.13c-.33 1.29-1.44 1.95-3.12 1.95-2.1 0-3.45-1.32-3.75-3.45h10.86c.03-.33.06-.78.06-1.35 0-3.45-2.13-7.38-7.47-7.38-5.13 0-7.47 3.93-7.47 7.77 0 3.81 2.64 7.83 7.77 7.83 3.72 0 6.6-2.1 7.2-5.37h-4.08zm-3.42-7.17c2.01 0 3.18 1.35 3.3 3.03h-6.69c.36-2.1 1.5-3.03 3.39-3.03zm18.407.66v-3.48h-2.152c-1.83 0-2.97.63-3.78 2.52v-2.52h-4.2V34h4.2v-7.35c0-2.58.93-4.29 3-4.29h2.932zm14.4-3.48h-4.2v8.28c0 1.92-1.29 3.36-3.12 3.36-1.71 0-2.91-1.32-2.91-3.15v-8.49h-4.17v9.42c0 3.45 2.22 5.94 5.61 5.94 2.07 0 3.75-.9 4.59-2.34V34h4.2V18.88zm1.8 15.12h4.17V12.31h-4.17V34zm16.075-5.13c-.33 1.29-1.44 1.95-3.12 1.95-2.1 0-3.45-1.32-3.75-3.45h10.86c.03-.33.06-.78.06-1.35 0-3.45-2.13-7.38-7.47-7.38-5.13 0-7.47 3.93-7.47 7.77 0 3.81 2.64 7.83 7.77 7.83 3.72 0 6.6-2.1 7.2-5.37h-4.08zm-3.42-7.17c2.01 0 3.18 1.35 3.3 3.03h-6.69c.36-2.1 1.5-3.03 3.39-3.03z"/></svg>