<svg xmlns="http://www.w3.org/2000/svg" width="343" height="240" fill="none"><circle cx="66" cy="10" r="4" fill="#25304C"/><path fill="#9EA3BF" d="M80.576 15.056v-1.26h2.548c.616 0 1.162-.098 1.638-.294a3.609 3.609 0 0 0 1.232-.84c.345-.355.607-.77.784-1.246.177-.476.266-.99.266-1.54 0-.579-.089-1.101-.266-1.568a3.394 3.394 0 0 0-.784-1.232 3.303 3.303 0 0 0-1.232-.812c-.476-.187-1.022-.28-1.638-.28h-2.548v-1.26h2.408c.924 0 1.727.145 2.408.434.681.28 1.246.663 1.694 1.148a4.676 4.676 0 0 1 1.022 1.61c.224.588.336 1.19.336 1.806v.308c0 .597-.112 1.195-.336 1.792a4.821 4.821 0 0 1-1.022 1.624c-.448.485-1.013.877-1.694 1.176-.681.29-1.484.434-2.408.434h-2.408zm-1.092 0V4.724h1.372v10.332h-1.372zM90.726 15V7.524h1.344V15h-1.344zm-1.148-6.412V7.524h2.492v1.064h-2.492zm1.526-2.268c-.298 0-.522-.08-.672-.238a.876.876 0 0 1-.21-.602c0-.243.07-.443.21-.602.15-.159.374-.238.672-.238.299 0 .518.08.658.238.15.159.224.36.224.602a.843.843 0 0 1-.224.602c-.14.159-.36.238-.658.238zM94.67 15V7.524h1.064v3.08h-.056c0-1.092.238-1.89.714-2.394.485-.513 1.209-.77 2.17-.77h.252v1.204h-.476c-.747 0-1.32.2-1.722.602-.401.392-.602.961-.602 1.708V15H94.67zm8.838.252c-.653 0-1.218-.112-1.694-.336a3.285 3.285 0 0 1-1.162-.882 3.918 3.918 0 0 1-.672-1.246 4.757 4.757 0 0 1-.21-1.4v-.252c0-.485.07-.957.21-1.414.149-.457.373-.868.672-1.232a3.137 3.137 0 0 1 1.134-.882c.467-.224 1.013-.336 1.638-.336.812 0 1.479.177 2.002.532.532.345.924.793 1.176 1.344.261.55.392 1.139.392 1.764v.602h-6.636v-1.008h5.656l-.308.546c0-.532-.084-.99-.252-1.372a1.968 1.968 0 0 0-.756-.91c-.336-.215-.761-.322-1.274-.322-.532 0-.975.121-1.33.364a2.254 2.254 0 0 0-.784.994c-.168.42-.252.905-.252 1.456 0 .532.084 1.013.252 1.442.177.42.448.756.812 1.008.364.243.826.364 1.386.364.588 0 1.064-.13 1.428-.392.373-.261.597-.565.672-.91h1.26a2.97 2.97 0 0 1-.616 1.33 2.969 2.969 0 0 1-1.162.854 4.052 4.052 0 0 1-1.582.294zm8.6 0c-.644 0-1.204-.112-1.68-.336a3.382 3.382 0 0 1-1.162-.896 4.191 4.191 0 0 1-.7-1.26 4.407 4.407 0 0 1-.224-1.372v-.252c0-.476.075-.943.224-1.4.159-.457.392-.868.7-1.232.318-.373.71-.672 1.176-.896.467-.224 1.013-.336 1.638-.336.626 0 1.186.117 1.68.35a2.93 2.93 0 0 1 1.204.994c.308.42.481.92.518 1.498h-1.288a1.802 1.802 0 0 0-.644-1.162c-.364-.317-.854-.476-1.47-.476-.532 0-.975.121-1.33.364a2.23 2.23 0 0 0-.798.994c-.177.42-.266.896-.266 1.428 0 .513.089.985.266 1.414.178.42.444.756.798 1.008.364.243.817.364 1.358.364.42 0 .784-.075 1.092-.224.308-.15.556-.35.742-.602.187-.252.299-.537.336-.854h1.288c-.028.588-.2 1.097-.518 1.526a3.12 3.12 0 0 1-1.232 1.008c-.504.233-1.073.35-1.708.35zm8.197-.168c-.56 0-1.046-.08-1.456-.238a1.848 1.848 0 0 1-.938-.812c-.215-.392-.322-.92-.322-1.582V5.256h1.288v7.364c0 .401.107.714.322.938.224.215.536.322.938.322h1.316v1.204h-1.148zM116.3 8.532V7.524h5.152v1.008H116.3z"/><circle cx="139" cy="10" r="4" fill="#86A3EE"/><path fill="#9EA3BF" d="M157.062 15.252c-.915 0-1.703-.163-2.366-.49a4.785 4.785 0 0 1-1.638-1.288 5.795 5.795 0 0 1-.966-1.708 5.46 5.46 0 0 1-.308-1.75v-.308c0-.607.107-1.218.322-1.834a5.092 5.092 0 0 1 .98-1.68 4.837 4.837 0 0 1 1.638-1.232c.663-.308 1.442-.462 2.338-.462.896 0 1.671.154 2.324.462a4.796 4.796 0 0 1 1.652 1.232c.439.504.765 1.064.98 1.68.215.616.322 1.227.322 1.834v.308a5.23 5.23 0 0 1-.322 1.75 5.535 5.535 0 0 1-.952 1.708 4.785 4.785 0 0 1-1.638 1.288c-.663.327-1.451.49-2.366.49zm0-1.26c.597 0 1.134-.112 1.61-.336a3.657 3.657 0 0 0 1.232-.91 4.23 4.23 0 0 0 .77-1.316 4.578 4.578 0 0 0 .266-1.554c0-.57-.089-1.101-.266-1.596a3.877 3.877 0 0 0-.77-1.302 3.502 3.502 0 0 0-1.232-.896 3.876 3.876 0 0 0-1.61-.322c-.597 0-1.139.107-1.624.322a3.532 3.532 0 0 0-1.218.896 3.877 3.877 0 0 0-.77 1.302 4.703 4.703 0 0 0-.266 1.596c0 .541.089 1.06.266 1.554.177.485.434.924.77 1.316.336.383.742.686 1.218.91a3.83 3.83 0 0 0 1.624.336zM164.401 15V7.524h1.064v3.08h-.056c0-1.092.238-1.89.714-2.394.486-.513 1.209-.77 2.17-.77h.252v1.204h-.476c-.746 0-1.32.2-1.722.602-.401.392-.602.961-.602 1.708V15h-1.344zm8.488 2.912c-.345 0-.695-.014-1.05-.042a15.436 15.436 0 0 1-.994-.112v-1.134a17 17 0 0 0 1.05.112c.374.037.724.056 1.05.056.682 0 1.223-.093 1.624-.28.411-.177.705-.462.882-.854.187-.383.28-.877.28-1.484v-1.428l.448-1.064c-.028.756-.186 1.386-.476 1.89a2.899 2.899 0 0 1-1.134 1.12 3.203 3.203 0 0 1-1.526.364 3.498 3.498 0 0 1-1.442-.294 3.545 3.545 0 0 1-1.12-.84 4.117 4.117 0 0 1-.728-1.218 4.307 4.307 0 0 1-.252-1.47v-.252c0-.523.089-1.008.266-1.456.178-.457.425-.854.742-1.19a3.351 3.351 0 0 1 1.134-.784c.448-.187.938-.28 1.47-.28.626 0 1.176.135 1.652.406.476.261.85.649 1.12 1.162.28.504.434 1.125.462 1.862l-.392.014V7.524h1.064v6.594c0 .896-.14 1.62-.42 2.17-.27.56-.709.97-1.316 1.232-.597.261-1.395.392-2.394.392zm.406-4.088c.448 0 .854-.098 1.218-.294.374-.196.668-.476.882-.84.224-.373.336-.817.336-1.33v-.644c0-.504-.116-.929-.35-1.274a2.165 2.165 0 0 0-.882-.784 2.678 2.678 0 0 0-1.19-.266c-.485 0-.914.112-1.288.336a2.267 2.267 0 0 0-.868.952c-.205.401-.308.877-.308 1.428 0 .55.103 1.031.308 1.442.215.41.504.728.868.952a2.51 2.51 0 0 0 1.274.322zM184.031 15v-2.24h-.224v-2.59c0-.513-.136-.9-.406-1.162-.262-.261-.649-.392-1.162-.392-.29 0-.588.005-.896.014l-.882.028c-.28.01-.523.023-.728.042V7.524c.205-.019.42-.033.644-.042.233-.019.471-.028.714-.028.242-.01.476-.014.7-.014.765 0 1.39.093 1.876.28.485.177.844.471 1.078.882.233.41.35.966.35 1.666V15h-1.064zm-2.45.196c-.56 0-1.046-.093-1.456-.28a2.212 2.212 0 0 1-.938-.84c-.215-.364-.322-.803-.322-1.316 0-.532.116-.975.35-1.33.242-.355.592-.62 1.05-.798.457-.187 1.008-.28 1.652-.28h2.03v1.008h-2.086c-.542 0-.957.13-1.246.392-.29.261-.434.597-.434 1.008 0 .41.144.742.434.994.289.252.704.378 1.246.378.317 0 .62-.056.91-.168.289-.121.527-.317.714-.588.196-.28.303-.663.322-1.148l.364.532c-.047.532-.178.98-.392 1.344a2.033 2.033 0 0 1-.868.812c-.364.187-.808.28-1.33.28zm5.98-.196V7.524h1.064v3.206h-.168c0-.737.098-1.358.294-1.862.206-.513.514-.9.924-1.162.411-.27.929-.406 1.554-.406h.056c.943 0 1.638.294 2.086.882.458.588.686 1.437.686 2.548V15h-1.344v-4.55c0-.579-.163-1.04-.49-1.386-.326-.355-.774-.532-1.344-.532-.588 0-1.064.182-1.428.546-.364.364-.546.85-.546 1.456V15h-1.344zm9.32 0V7.524h1.344V15h-1.344zm-1.148-6.412V7.524h2.492v1.064h-2.492zm1.526-2.268c-.299 0-.523-.08-.672-.238a.876.876 0 0 1-.21-.602c0-.243.07-.443.21-.602.149-.159.373-.238.672-.238.298 0 .518.08.658.238.149.159.224.36.224.602a.845.845 0 0 1-.224.602c-.14.159-.36.238-.658.238zm6.77 8.932c-.644 0-1.204-.112-1.68-.336a3.372 3.372 0 0 1-1.162-.896 4.191 4.191 0 0 1-.7-1.26 4.407 4.407 0 0 1-.224-1.372v-.252c0-.476.075-.943.224-1.4.159-.457.392-.868.7-1.232a3.513 3.513 0 0 1 1.176-.896c.467-.224 1.013-.336 1.638-.336s1.185.117 1.68.35c.504.233.905.565 1.204.994.308.42.481.92.518 1.498h-1.288a1.802 1.802 0 0 0-.644-1.162c-.364-.317-.854-.476-1.47-.476-.532 0-.975.121-1.33.364a2.214 2.214 0 0 0-.798.994c-.177.42-.266.896-.266 1.428 0 .513.089.985.266 1.414.177.42.443.756.798 1.008.364.243.817.364 1.358.364.42 0 .784-.075 1.092-.224.308-.15.555-.35.742-.602.187-.252.299-.537.336-.854h1.288c-.028.588-.201 1.097-.518 1.526a3.13 3.13 0 0 1-1.232 1.008c-.504.233-1.073.35-1.708.35zm10.92-.028c-.98 0-1.741-.21-2.282-.63-.532-.42-.807-.994-.826-1.722h1.26c.019.29.163.565.434.826.28.252.751.378 1.414.378.597 0 1.055-.117 1.372-.35.317-.243.476-.537.476-.882 0-.308-.117-.546-.35-.714-.233-.177-.611-.294-1.134-.35l-.812-.084c-.709-.075-1.288-.285-1.736-.63-.448-.355-.672-.85-.672-1.484 0-.476.121-.882.364-1.218a2.247 2.247 0 0 1 1.008-.784c.429-.187.924-.28 1.484-.28.84 0 1.521.187 2.044.56.523.373.793.929.812 1.666h-1.26c-.009-.299-.149-.55-.42-.756-.261-.215-.653-.322-1.176-.322-.523 0-.919.107-1.19.322a.994.994 0 0 0-.406.812c0 .28.093.504.28.672.196.168.513.275.952.322l.812.084c.803.084 1.447.308 1.932.672.485.355.728.859.728 1.512 0 .467-.135.882-.406 1.246-.261.355-.625.635-1.092.84-.467.196-1.003.294-1.61.294zm8.234.028c-.654 0-1.218-.112-1.694-.336a3.276 3.276 0 0 1-1.162-.882 3.918 3.918 0 0 1-.672-1.246 4.757 4.757 0 0 1-.21-1.4v-.252c0-.485.07-.957.21-1.414.149-.457.373-.868.672-1.232a3.12 3.12 0 0 1 1.134-.882c.466-.224 1.012-.336 1.638-.336.812 0 1.479.177 2.002.532.532.345.924.793 1.176 1.344.261.55.392 1.139.392 1.764v.602h-6.636v-1.008h5.656l-.308.546c0-.532-.084-.99-.252-1.372a1.968 1.968 0 0 0-.756-.91c-.336-.215-.761-.322-1.274-.322-.532 0-.976.121-1.33.364a2.247 2.247 0 0 0-.784.994c-.168.42-.252.905-.252 1.456 0 .532.084 1.013.252 1.442.177.42.448.756.812 1.008.364.243.826.364 1.386.364.588 0 1.064-.13 1.428-.392.373-.261.597-.565.672-.91h1.26a2.97 2.97 0 0 1-.616 1.33 2.976 2.976 0 0 1-1.162.854 4.052 4.052 0 0 1-1.582.294zm9.916-.252v-2.24h-.224v-2.59c0-.513-.135-.9-.406-1.162-.261-.261-.649-.392-1.162-.392-.289 0-.588.005-.896.014l-.882.028c-.28.01-.523.023-.728.042V7.524c.205-.019.42-.033.644-.042.233-.019.471-.028.714-.028.243-.01.476-.014.7-.014.765 0 1.391.093 1.876.28.485.177.845.471 1.078.882.233.41.35.966.35 1.666V15h-1.064zm-2.45.196c-.56 0-1.045-.093-1.456-.28a2.218 2.218 0 0 1-.938-.84c-.215-.364-.322-.803-.322-1.316 0-.532.117-.975.35-1.33.243-.355.593-.62 1.05-.798.457-.187 1.008-.28 1.652-.28h2.03v1.008h-2.086c-.541 0-.957.13-1.246.392a1.298 1.298 0 0 0-.434 1.008c0 .41.145.742.434.994.289.252.705.378 1.246.378.317 0 .621-.056.91-.168.289-.121.527-.317.714-.588.196-.28.303-.663.322-1.148l.364.532c-.047.532-.177.98-.392 1.344a2.028 2.028 0 0 1-.868.812c-.364.187-.807.28-1.33.28zM236.63 15V7.524h1.064v3.08h-.056c0-1.092.238-1.89.714-2.394.485-.513 1.208-.77 2.17-.77h.252v1.204h-.476c-.747 0-1.321.2-1.722.602-.402.392-.602.961-.602 1.708V15h-1.344zm8.866.252c-.644 0-1.204-.112-1.68-.336a3.372 3.372 0 0 1-1.162-.896 4.191 4.191 0 0 1-.7-1.26 4.407 4.407 0 0 1-.224-1.372v-.252c0-.476.075-.943.224-1.4.159-.457.392-.868.7-1.232a3.513 3.513 0 0 1 1.176-.896c.467-.224 1.013-.336 1.638-.336s1.185.117 1.68.35c.504.233.905.565 1.204.994.308.42.481.92.518 1.498h-1.288a1.802 1.802 0 0 0-.644-1.162c-.364-.317-.854-.476-1.47-.476-.532 0-.975.121-1.33.364a2.214 2.214 0 0 0-.798.994c-.177.42-.266.896-.266 1.428 0 .513.089.985.266 1.414.177.42.443.756.798 1.008.364.243.817.364 1.358.364.42 0 .784-.075 1.092-.224.308-.15.555-.35.742-.602.187-.252.299-.537.336-.854h1.288c-.028.588-.201 1.097-.518 1.526a3.13 3.13 0 0 1-1.232 1.008c-.504.233-1.073.35-1.708.35zM250.78 15V4.78h1.344v6.104h-.336c0-.737.094-1.372.28-1.904.196-.541.495-.957.896-1.246.402-.29.915-.434 1.54-.434h.056c.896 0 1.573.299 2.03.896.458.588.686 1.433.686 2.534V15h-1.344v-4.55c0-.607-.172-1.078-.518-1.414-.336-.336-.774-.504-1.316-.504-.597 0-1.078.2-1.442.602-.354.392-.532.91-.532 1.554V15h-1.344z"/><circle cx="275" cy="10" r="4" fill="#3A6EF2"/><path fill="#9EA3BF" d="M288.484 15V4.724h1.372V15h-1.372zm6.314 0-3.388-4.55h1.61l3.444 4.55h-1.666zm-5.46-3.696v-1.218h2.744c.429 0 .798-.089 1.106-.266.308-.177.546-.42.714-.728.168-.317.252-.677.252-1.078s-.084-.756-.252-1.064a1.823 1.823 0 0 0-.714-.742c-.308-.187-.677-.28-1.106-.28h-2.744V4.724h2.492c.747 0 1.4.112 1.96.336.56.224.994.57 1.302 1.036.308.467.462 1.069.462 1.806v.224c0 .737-.159 1.34-.476 1.806-.308.467-.742.812-1.302 1.036-.551.224-1.199.336-1.946.336h-2.492zm11.794 3.948c-.653 0-1.218-.112-1.694-.336a3.285 3.285 0 0 1-1.162-.882 3.918 3.918 0 0 1-.672-1.246 4.757 4.757 0 0 1-.21-1.4v-.252c0-.485.07-.957.21-1.414.149-.457.373-.868.672-1.232a3.137 3.137 0 0 1 1.134-.882c.467-.224 1.013-.336 1.638-.336.812 0 1.479.177 2.002.532.532.345.924.793 1.176 1.344.261.55.392 1.139.392 1.764v.602h-6.636v-1.008h5.656l-.308.546c0-.532-.084-.99-.252-1.372a1.968 1.968 0 0 0-.756-.91c-.336-.215-.761-.322-1.274-.322-.532 0-.975.121-1.33.364a2.254 2.254 0 0 0-.784.994c-.168.42-.252.905-.252 1.456 0 .532.084 1.013.252 1.442.177.42.448.756.812 1.008.364.243.826.364 1.386.364.588 0 1.064-.13 1.428-.392.373-.261.597-.565.672-.91h1.26a2.97 2.97 0 0 1-.616 1.33 2.969 2.969 0 0 1-1.162.854 4.052 4.052 0 0 1-1.582.294zm5.59-.252V7.146c0-.83.22-1.442.658-1.834.439-.392 1.083-.588 1.932-.588h.924v1.12h-1.148c-.345 0-.611.098-.798.294-.186.187-.28.448-.28.784V15h-1.288zm-1.036-6.384V7.608h4.69v1.008h-4.69zm9.268 6.636c-.653 0-1.218-.112-1.694-.336a3.285 3.285 0 0 1-1.162-.882 3.958 3.958 0 0 1-.672-1.246 4.757 4.757 0 0 1-.21-1.4v-.252c0-.485.07-.957.21-1.414.15-.457.374-.868.672-1.232a3.137 3.137 0 0 1 1.134-.882c.467-.224 1.013-.336 1.638-.336.812 0 1.48.177 2.002.532.532.345.924.793 1.176 1.344.262.55.392 1.139.392 1.764v.602h-6.636v-1.008h5.656l-.308.546c0-.532-.084-.99-.252-1.372a1.968 1.968 0 0 0-.756-.91c-.336-.215-.76-.322-1.274-.322-.532 0-.975.121-1.33.364a2.261 2.261 0 0 0-.784.994c-.168.42-.252.905-.252 1.456 0 .532.084 1.013.252 1.442.178.42.448.756.812 1.008.364.243.826.364 1.386.364.588 0 1.064-.13 1.428-.392.374-.261.598-.565.672-.91h1.26a2.959 2.959 0 0 1-.616 1.33 2.969 2.969 0 0 1-1.162.854c-.466.196-.994.294-1.582.294zm5.395-.252V7.524h1.064v3.08h-.056c0-1.092.238-1.89.714-2.394.485-.513 1.208-.77 2.17-.77h.252v1.204h-.476c-.747 0-1.321.2-1.722.602-.402.392-.602.961-.602 1.708V15h-1.344zm5.742 0V7.524h1.064v3.08h-.056c0-1.092.238-1.89.714-2.394.485-.513 1.208-.77 2.17-.77h.252v1.204h-.476c-.747 0-1.321.2-1.722.602-.402.392-.602.961-.602 1.708V15h-1.344zm10.237 0v-2.24h-.224v-2.59c0-.513-.136-.9-.406-1.162-.262-.261-.649-.392-1.162-.392-.29 0-.588.005-.896.014l-.882.028c-.28.01-.523.023-.728.042V7.524c.205-.019.42-.033.644-.042.233-.019.471-.028.714-.028.242-.01.476-.014.7-.014.765 0 1.39.093 1.876.28.485.177.844.471 1.078.882.233.41.35.966.35 1.666V15h-1.064zm-2.45.196c-.56 0-1.046-.093-1.456-.28a2.212 2.212 0 0 1-.938-.84c-.215-.364-.322-.803-.322-1.316 0-.532.116-.975.35-1.33.242-.355.592-.62 1.05-.798.457-.187 1.008-.28 1.652-.28h2.03v1.008h-2.086c-.542 0-.957.13-1.246.392-.29.261-.434.597-.434 1.008 0 .41.144.742.434.994.289.252.704.378 1.246.378.317 0 .62-.056.91-.168.289-.121.527-.317.714-.588.196-.28.303-.663.322-1.148l.364.532c-.047.532-.178.98-.392 1.344a2.033 2.033 0 0 1-.868.812c-.364.187-.808.28-1.33.28zm6.064-.196V4.78h1.344V15h-1.344zm-1.036-9.156V4.78h2.38v1.064h-2.38z"/><path stroke="#fff" stroke-linecap="round" stroke-opacity=".15" d="M.5 30.5h342M.5 68.6h342M.5 104.2h342M.5 139.8h342M.5 175.4h342M.5 211h342"/><path fill="#9EA3BF" d="M12.125 235.252a3.87 3.87 0 0 1-1.806-.42 3.12 3.12 0 0 1-1.288-1.246c-.308-.551-.462-1.237-.462-2.058v-.35h1.372v.602c0 .7.205 1.246.616 1.638.41.383.933.574 1.568.574s1.157-.191 1.568-.574c.41-.392.616-.938.616-1.638v-6.048h1.372v5.796c0 .821-.159 1.507-.476 2.058a3.033 3.033 0 0 1-1.274 1.246c-.532.28-1.134.42-1.806.42zm-2.212-9.24v-1.232h5.768v1.232H9.913zM22.803 235v-2.24h-.225v-2.59c0-.513-.135-.901-.406-1.162-.261-.261-.649-.392-1.162-.392-.29 0-.588.005-.896.014l-.882.028c-.28.009-.523.023-.728.042v-1.176c.205-.019.42-.033.644-.042.233-.019.471-.028.714-.028.243-.009.476-.014.7-.014.765 0 1.39.093 1.876.28.486.177.845.471 1.078.882.234.411.35.966.35 1.666V235h-1.064zm-2.45.196c-.56 0-1.046-.093-1.457-.28a2.216 2.216 0 0 1-.938-.84c-.214-.364-.322-.803-.322-1.316 0-.532.117-.975.35-1.33.243-.355.593-.621 1.05-.798.457-.187 1.008-.28 1.652-.28h2.03v1.008h-2.086c-.541 0-.957.131-1.246.392-.29.261-.434.597-.434 1.008 0 .411.145.742.434.994.29.252.705.378 1.246.378.317 0 .62-.056.91-.168a1.61 1.61 0 0 0 .714-.588c.196-.28.303-.663.322-1.148l.364.532c-.047.532-.177.98-.392 1.344a2.028 2.028 0 0 1-.868.812c-.364.187-.807.28-1.33.28zm5.98-.196v-7.476h1.064v3.206h-.168c0-.737.098-1.358.294-1.862.205-.513.513-.901.924-1.162.41-.271.929-.406 1.554-.406h.056c.943 0 1.638.294 2.086.882.457.588.686 1.437.686 2.548V235h-1.344v-4.55c0-.579-.163-1.041-.49-1.386-.327-.355-.775-.532-1.344-.532-.588 0-1.064.182-1.428.546-.364.364-.546.849-.546 1.456V235h-1.344zm32.144 0v-10.22h1.82l3.024 6.818h.224l3.01-6.818h1.834V235h-1.372v-8.722l.098.028-2.898 6.58h-1.68l-2.912-6.58.112-.028V235h-1.26zm17.205 0v-2.24h-.224v-2.59c0-.513-.135-.901-.406-1.162-.261-.261-.649-.392-1.162-.392-.29 0-.588.005-.896.014l-.882.028c-.28.009-.523.023-.728.042v-1.176c.205-.019.42-.033.644-.042.233-.019.471-.028.714-.028.243-.009.476-.014.7-.014.765 0 1.39.093 1.876.28.485.177.845.471 1.078.882.233.411.35.966.35 1.666V235h-1.064zm-2.45.196c-.56 0-1.045-.093-1.456-.28a2.216 2.216 0 0 1-.938-.84c-.215-.364-.322-.803-.322-1.316 0-.532.117-.975.35-1.33.243-.355.593-.621 1.05-.798.457-.187 1.008-.28 1.652-.28h2.03v1.008h-2.086c-.541 0-.957.131-1.246.392-.29.261-.434.597-.434 1.008 0 .411.145.742.434.994.29.252.705.378 1.246.378a2.5 2.5 0 0 0 .91-.168 1.61 1.61 0 0 0 .714-.588c.196-.28.303-.663.322-1.148l.364.532c-.047.532-.177.98-.392 1.344a2.028 2.028 0 0 1-.868.812c-.364.187-.807.28-1.33.28zm5.98-.196v-7.476h1.065v3.08h-.056c0-1.092.238-1.89.714-2.394.485-.513 1.209-.77 2.17-.77h.252v1.204h-.476c-.747 0-1.32.201-1.722.602-.402.392-.602.961-.602 1.708V235h-1.344zm29.044 0v-10.22h1.82l3.024 6.818h.224l3.01-6.818h1.834V235h-1.372v-8.722l.098.028-2.898 6.58h-1.68l-2.912-6.58.112-.028V235h-1.26zm17.205 0v-2.24h-.224v-2.59c0-.513-.135-.901-.406-1.162-.261-.261-.648-.392-1.162-.392-.289 0-.588.005-.896.014l-.882.028c-.28.009-.522.023-.728.042v-1.176c.206-.019.42-.033.644-.042.234-.019.472-.028.714-.028.243-.009.476-.014.7-.014.766 0 1.391.093 1.876.28.486.177.845.471 1.078.882.234.411.35.966.35 1.666V235h-1.064zm-2.45.196c-.56 0-1.045-.093-1.456-.28a2.218 2.218 0 0 1-.938-.84c-.214-.364-.322-.803-.322-1.316 0-.532.117-.975.35-1.33.243-.355.593-.621 1.05-.798.458-.187 1.008-.28 1.652-.28h2.03v1.008h-2.086c-.541 0-.956.131-1.246.392a1.297 1.297 0 0 0-.434 1.008c0 .411.145.742.434.994.29.252.705.378 1.246.378.318 0 .621-.056.91-.168.29-.121.528-.317.714-.588.196-.28.304-.663.322-1.148l.364.532c-.046.532-.177.98-.392 1.344a2.022 2.022 0 0 1-.868.812c-.364.187-.807.28-1.33.28zm5.45 2.716v-1.204h1.078c.317 0 .583-.042.798-.126.224-.075.406-.205.546-.392.149-.187.27-.434.364-.742l2.352-7.924h1.316l-2.492 8.274c-.15.495-.36.896-.63 1.204a2.308 2.308 0 0 1-.994.686c-.383.149-.831.224-1.344.224h-.994zm2.282-3.08v-1.12h1.624v1.12h-1.624zm-.14 0-2.674-7.308h1.372l2.562 7.308h-1.26zm31.733.42a3.87 3.87 0 0 1-1.806-.42 3.12 3.12 0 0 1-1.288-1.246c-.308-.551-.462-1.237-.462-2.058v-.35h1.372v.602c0 .7.205 1.246.616 1.638.411.383.933.574 1.568.574s1.157-.191 1.568-.574c.411-.392.616-.938.616-1.638v-6.048h1.372v5.796c0 .821-.159 1.507-.476 2.058a3.035 3.035 0 0 1-1.274 1.246c-.532.28-1.134.42-1.806.42zm-2.212-9.24v-1.232h5.768v1.232h-5.768zm10.957 9.212c-.887 0-1.568-.289-2.044-.868s-.714-1.414-.714-2.506v-4.34h1.344v4.606c0 .588.159 1.05.476 1.386.317.327.747.49 1.288.49.56 0 1.017-.177 1.372-.532.355-.364.532-.859.532-1.484v-4.466h1.344V235h-1.064v-3.206h.168c0 .737-.098 1.363-.294 1.876-.196.504-.49.891-.882 1.162-.383.261-.873.392-1.47.392h-.056zm6.285-.224v-10.22h1.344V235h-1.344zm-1.036-9.156v-1.064h2.38v1.064h-2.38zm31.262 9.408c-.849 0-1.573-.14-2.17-.42-.597-.28-1.055-.667-1.372-1.162a3.048 3.048 0 0 1-.476-1.68h1.372c0 .308.079.616.238.924.168.308.443.565.826.77.392.205.919.308 1.582.308.616 0 1.12-.089 1.512-.266.392-.187.681-.425.868-.714.187-.299.28-.621.28-.966 0-.42-.182-.765-.546-1.036-.364-.28-.896-.453-1.596-.518l-1.134-.098c-.905-.075-1.629-.355-2.17-.84-.541-.485-.812-1.125-.812-1.918 0-.625.149-1.171.448-1.638a3.103 3.103 0 0 1 1.274-1.092c.541-.271 1.171-.406 1.89-.406.709 0 1.335.131 1.876.392.541.261.961.63 1.26 1.106.308.467.462 1.027.462 1.68h-1.372c0-.327-.079-.635-.238-.924a1.751 1.751 0 0 0-.714-.714c-.327-.187-.751-.28-1.274-.28-.504 0-.924.089-1.26.266a1.854 1.854 0 0 0-.742.7 1.81 1.81 0 0 0-.238.91c0 .373.145.705.434.994.289.289.719.457 1.288.504l1.134.098c.7.056 1.302.205 1.806.448.513.233.905.551 1.176.952.28.392.42.863.42 1.414 0 .625-.168 1.181-.504 1.666-.336.485-.807.863-1.414 1.134-.607.271-1.311.406-2.114.406zm9.316 0c-.653 0-1.218-.112-1.694-.336a3.285 3.285 0 0 1-1.162-.882 3.958 3.958 0 0 1-.672-1.246 4.755 4.755 0 0 1-.21-1.4v-.252c0-.485.07-.957.21-1.414.15-.457.374-.868.672-1.232a3.144 3.144 0 0 1 1.134-.882c.467-.224 1.013-.336 1.638-.336.812 0 1.48.177 2.002.532.532.345.924.793 1.176 1.344.262.551.392 1.139.392 1.764v.602h-6.636v-1.008h5.656l-.308.546c0-.532-.084-.989-.252-1.372a1.97 1.97 0 0 0-.756-.91c-.336-.215-.76-.322-1.274-.322-.532 0-.975.121-1.33.364a2.263 2.263 0 0 0-.784.994c-.168.42-.252.905-.252 1.456 0 .532.084 1.013.252 1.442.178.42.448.756.812 1.008.364.243.826.364 1.386.364.588 0 1.064-.131 1.428-.392.374-.261.598-.565.672-.91h1.26a2.959 2.959 0 0 1-.616 1.33 2.971 2.971 0 0 1-1.162.854c-.466.196-.994.294-1.582.294zm5.395 2.548v-10.276h1.064v3.234l-.252-.028c.046-.803.214-1.456.504-1.96.298-.513.686-.891 1.162-1.134a3.368 3.368 0 0 1 1.554-.364c.541 0 1.031.103 1.47.308.448.205.83.485 1.148.84.317.355.56.765.728 1.232.168.467.252.961.252 1.484v.252a4.15 4.15 0 0 1-.266 1.484c-.178.467-.43.877-.756 1.232-.318.355-.7.635-1.148.84a3.398 3.398 0 0 1-1.456.308 3.483 3.483 0 0 1-1.526-.35c-.486-.233-.887-.611-1.204-1.134-.318-.523-.5-1.209-.546-2.058l.616 1.12v4.97h-1.344zm3.794-3.724c.504 0 .942-.117 1.316-.35.373-.243.662-.574.868-.994.205-.429.308-.919.308-1.47 0-.56-.103-1.05-.308-1.47a2.34 2.34 0 0 0-.868-.98c-.374-.243-.812-.364-1.316-.364-.448 0-.864.103-1.246.308a2.286 2.286 0 0 0-.924.868c-.224.373-.336.826-.336 1.358v.644c0 .513.116.952.35 1.316.233.364.541.644.924.84.382.196.793.294 1.232.294zm29.695.924v-10.22h2.24l5.194 8.988h.448l-.28.252v-9.24h1.316V235h-2.268l-5.194-8.988h-.448l.28-.252V235h-1.288zm15.128.252c-.653 0-1.227-.112-1.722-.336a3.987 3.987 0 0 1-1.26-.882 4.038 4.038 0 0 1-.77-1.246 4.03 4.03 0 0 1-.252-1.4v-.252c0-.476.089-.943.266-1.4.178-.467.439-.882.784-1.246a3.719 3.719 0 0 1 1.26-.882c.495-.224 1.06-.336 1.694-.336.635 0 1.2.112 1.694.336a3.7 3.7 0 0 1 1.26.882c.346.364.607.779.784 1.246.178.457.266.924.266 1.4v.252c0 .476-.088.943-.266 1.4a3.693 3.693 0 0 1-.77 1.246 3.805 3.805 0 0 1-1.246.882c-.494.224-1.068.336-1.722.336zm0-1.204c.56 0 1.036-.121 1.428-.364.402-.252.705-.588.91-1.008.215-.42.322-.891.322-1.414 0-.532-.107-1.008-.322-1.428a2.426 2.426 0 0 0-.924-.994c-.392-.243-.863-.364-1.414-.364-.541 0-1.012.121-1.414.364a2.44 2.44 0 0 0-.924.994c-.214.42-.322.896-.322 1.428 0 .523.103.994.308 1.414.215.42.518.756.91 1.008.402.243.882.364 1.442.364zm7.477.952-2.548-7.476h1.4l2.492 7.476h-1.344zm.336 0v-1.064h1.624V235h-1.624zm.644 0 2.17-7.476h1.316L280.651 235h-1.274zm30.062.056v-1.26h2.548c.616 0 1.162-.098 1.638-.294a3.593 3.593 0 0 0 1.232-.84 3.52 3.52 0 0 0 .784-1.246 4.36 4.36 0 0 0 .266-1.54c0-.579-.088-1.101-.266-1.568a3.378 3.378 0 0 0-.784-1.232 3.298 3.298 0 0 0-1.232-.812c-.476-.187-1.022-.28-1.638-.28h-2.548v-1.26h2.408c.924 0 1.727.145 2.408.434.682.28 1.246.663 1.694 1.148a4.668 4.668 0 0 1 1.022 1.61c.224.588.336 1.19.336 1.806v.308c0 .597-.112 1.195-.336 1.792a4.81 4.81 0 0 1-1.022 1.624c-.448.485-1.012.877-1.694 1.176-.681.289-1.484.434-2.408.434h-2.408zm-1.092 0v-10.332h1.372v10.332h-1.372zm14.057.196c-.654 0-1.218-.112-1.694-.336a3.276 3.276 0 0 1-1.162-.882 3.918 3.918 0 0 1-.672-1.246 4.755 4.755 0 0 1-.21-1.4v-.252c0-.485.07-.957.21-1.414.149-.457.373-.868.672-1.232a3.127 3.127 0 0 1 1.134-.882c.466-.224 1.012-.336 1.638-.336.812 0 1.479.177 2.002.532.532.345.924.793 1.176 1.344a4.07 4.07 0 0 1 .392 1.764v.602h-6.636v-1.008h5.656l-.308.546c0-.532-.084-.989-.252-1.372a1.97 1.97 0 0 0-.756-.91c-.336-.215-.761-.322-1.274-.322-.532 0-.976.121-1.33.364a2.25 2.25 0 0 0-.784.994c-.168.42-.252.905-.252 1.456 0 .532.084 1.013.252 1.442.177.42.448.756.812 1.008.364.243.826.364 1.386.364.588 0 1.064-.131 1.428-.392.373-.261.597-.565.672-.91h1.26a2.97 2.97 0 0 1-.616 1.33 2.979 2.979 0 0 1-1.162.854 4.052 4.052 0 0 1-1.582.294zm8.6 0c-.644 0-1.204-.112-1.68-.336a3.376 3.376 0 0 1-1.162-.896 4.177 4.177 0 0 1-.7-1.26 4.378 4.378 0 0 1-.224-1.372v-.252c0-.476.074-.943.224-1.4.158-.457.392-.868.7-1.232a3.518 3.518 0 0 1 1.176-.896c.466-.224 1.012-.336 1.638-.336.625 0 1.185.117 1.68.35.504.233.905.565 1.204.994.308.42.48.919.518 1.498h-1.288a1.805 1.805 0 0 0-.644-1.162c-.364-.317-.854-.476-1.47-.476-.532 0-.976.121-1.33.364a2.216 2.216 0 0 0-.798.994c-.178.42-.266.896-.266 1.428 0 .513.088.985.266 1.414.177.42.443.756.798 1.008.364.243.816.364 1.358.364.42 0 .784-.075 1.092-.224.308-.149.555-.35.742-.602.186-.252.298-.537.336-.854h1.288c-.028.588-.201 1.097-.518 1.526a3.135 3.135 0 0 1-1.232 1.008c-.504.233-1.074.35-1.708.35z" opacity=".6"/><g clip-path="url(#a)"><g clip-path="url(#b)"><path fill="#25304C" d="M12 68h16v146H12V68z"/><path fill="#86A3EE" d="M12 110.583h16V214H12V110.583z"/><path fill="#3A6EF2" d="M12 159.25h16V214H12v-54.75z"/></g><g clip-path="url(#c)"><path fill="#25304C" d="M39.546 36h16v178h-16V36z"/><path fill="#86A3EE" d="M39.546 87.917h16V214h-16V87.917z"/><path fill="#3A6EF2" d="M39.546 147.25h16V214h-16v-66.75z"/></g><g clip-path="url(#d)"><path fill="#25304C" d="M67.09 100h16v114h-16V100z"/><path fill="#86A3EE" d="M67.09 133.25h16V214h-16v-80.75z"/><path fill="#3A6EF2" d="M67.09 171.25h16V214h-16v-42.75z"/></g><g clip-path="url(#e)"><path fill="#25304C" d="M94.637 60h16v154h-16V60z"/><path fill="#86A3EE" d="M94.637 104.917h16V214h-16V104.917z"/><path fill="#3A6EF2" d="M94.637 156.25h16V214h-16v-57.75z"/></g><g clip-path="url(#f)"><path fill="#25304C" d="M122.182 100h16v114h-16V100z"/><path fill="#86A3EE" d="M122.182 133.25h16V214h-16v-80.75z"/><path fill="#3A6EF2" d="M122.182 171.25h16V214h-16v-42.75z"/></g><g clip-path="url(#g)"><path fill="#25304C" d="M149.728 44h16v170h-16V44z"/><path fill="#86A3EE" d="M149.728 93.583h16V214h-16V93.583z"/><path fill="#3A6EF2" d="M149.728 150.25h16V214h-16v-63.75z"/></g><g clip-path="url(#h)"><path fill="#25304C" d="M177.272 68h16v146h-16V68z"/><path fill="#86A3EE" d="M177.272 110.583h16V214h-16V110.583z"/><path fill="#3A6EF2" d="M177.272 159.25h16V214h-16v-54.75z"/></g><g clip-path="url(#i)"><path fill="#25304C" d="M204.818 60h16v154h-16V60z"/><path fill="#86A3EE" d="M204.818 104.917h16V214h-16V104.917z"/><path fill="#3A6EF2" d="M204.818 156.25h16V214h-16v-57.75z"/></g><g clip-path="url(#j)"><path fill="#25304C" d="M232.363 68h16v146h-16V68z"/><path fill="#86A3EE" d="M232.363 110.583h16V214h-16V110.583z"/><path fill="#3A6EF2" d="M232.363 159.25h16V214h-16v-54.75z"/></g><g clip-path="url(#k)"><path fill="#25304C" d="M259.909 52h16v162h-16V52z"/><path fill="#86A3EE" d="M259.909 99.25h16V214h-16V99.25z"/><path fill="#3A6EF2" d="M259.909 153.25h16V214h-16v-60.75z"/></g><g clip-path="url(#l)"><path fill="#25304C" d="M287.455 36h16v178h-16V36z"/><path fill="#86A3EE" d="M287.455 87.917h16V214h-16V87.917z"/><path fill="#3A6EF2" d="M287.455 147.25h16V214h-16v-66.75z"/></g><g clip-path="url(#m)"><path fill="#25304C" d="M315 76h16v138h-16V76z"/><path fill="#86A3EE" d="M315 116.25h16V214h-16v-97.75z"/><path fill="#3A6EF2" d="M315 162.25h16V214h-16v-51.75z"/></g></g><defs><clipPath id="a"><path fill="#fff" d="M0 20h343v194H0z"/></clipPath><clipPath id="b"><path fill="#fff" d="M12 72a4 4 0 0 1 4-4h8a4 4 0 0 1 4 4v142H12V72z"/></clipPath><clipPath id="c"><path fill="#fff" d="M39.546 40a4 4 0 0 1 4-4h8a4 4 0 0 1 4 4v174h-16V40z"/></clipPath><clipPath id="d"><path fill="#fff" d="M67.09 104a4 4 0 0 1 4-4h8a4 4 0 0 1 4 4v110h-16V104z"/></clipPath><clipPath id="e"><path fill="#fff" d="M94.637 64a4 4 0 0 1 4-4h8a4 4 0 0 1 4 4v150h-16V64z"/></clipPath><clipPath id="f"><path fill="#fff" d="M122.182 104a4 4 0 0 1 4-4h8a4 4 0 0 1 4 4v110h-16V104z"/></clipPath><clipPath id="g"><path fill="#fff" d="M149.728 48a4 4 0 0 1 4-4h8a4 4 0 0 1 4 4v166h-16V48z"/></clipPath><clipPath id="h"><path fill="#fff" d="M177.272 72a4 4 0 0 1 4-4h8a4 4 0 0 1 4 4v142h-16V72z"/></clipPath><clipPath id="i"><path fill="#fff" d="M204.818 64a4 4 0 0 1 4-4h8a4 4 0 0 1 4 4v150h-16V64z"/></clipPath><clipPath id="j"><path fill="#fff" d="M232.363 72a4 4 0 0 1 4-4h8a4 4 0 0 1 4 4v142h-16V72z"/></clipPath><clipPath id="k"><path fill="#fff" d="M259.909 56a4 4 0 0 1 4-4h8a4 4 0 0 1 4 4v158h-16V56z"/></clipPath><clipPath id="l"><path fill="#fff" d="M287.455 40a4 4 0 0 1 4-4h8a4 4 0 0 1 4 4v174h-16V40z"/></clipPath><clipPath id="m"><path fill="#fff" d="M315 80a4 4 0 0 1 4-4h8a4 4 0 0 1 4 4v134h-16V80z"/></clipPath></defs></svg>