<svg xmlns="http://www.w3.org/2000/svg" width="401" height="326" fill="none"><path stroke="#fff" stroke-linecap="round" stroke-linejoin="round" stroke-opacity=".15" d="M179.043 158.763 200.5 148.43l21.457 10.333 5.3 23.219-14.849 18.62h-23.816l-14.849-18.62 5.3-23.219z"/><path stroke="#fff" stroke-linecap="round" stroke-linejoin="round" stroke-opacity=".15" d="M157.151 141.306 200.5 120.43l43.349 20.876 10.706 46.907-29.998 37.616h-48.114l-29.998-37.616 10.706-46.907z"/><path stroke="#fff" stroke-linecap="round" stroke-linejoin="round" stroke-opacity=".15" d="M135.26 123.848 200.5 92.43l65.24 31.418 16.113 70.595-45.148 56.613h-72.41l-45.148-56.613 16.113-70.595z"/><path stroke="#fff" stroke-linecap="round" stroke-linejoin="round" stroke-opacity=".15" d="M113.369 106.39 200.5 64.43l87.131 41.96 21.52 94.284-60.297 75.61h-96.708l-60.297-75.61 21.52-94.284z"/><path stroke="#fff" stroke-linecap="round" stroke-linejoin="round" stroke-opacity=".15" d="M91.478 88.932 200.5 36.43l109.023 52.502 26.926 117.972-75.446 94.607H139.997l-75.446-94.607L91.478 88.932zm-.554-.218L200.5 175.425m0 0V36.312m0 139.113 109.576-86.711M200.5 175.425 337 206.928m-136.5-31.503 60.736 126.012M200.5 175.425l-60.736 125.701M200.5 175.425 64 206.928"/><rect width="41.125" height="18.625" x="179.938" y="28.438" fill="#F9FAFB" fill-opacity=".1" rx="9.313"/><rect width="41.125" height="18.625" x="179.938" y="28.438" stroke="#9EA3BF" stroke-width=".875" rx="9.313"/><path fill="#fff" d="M190.33 34.114v7.636h-1.156v-6.48h-.045l-1.827 1.193v-1.104l1.906-1.245h1.122zm3.09 6.592-.056.406c-.037.299-.1.61-.19.933-.087.325-.178.627-.272.906-.092.278-.168.5-.228.663h-.79l.134-.626c.057-.261.113-.553.168-.876.055-.324.096-.653.123-.988l.037-.418h1.074zm3.941 1.17c-.589-.002-1.092-.157-1.51-.465-.417-.309-.737-.757-.958-1.346-.221-.59-.332-1.3-.332-2.13 0-.827.111-1.534.332-2.121.224-.587.544-1.034.962-1.342.42-.309.922-.463 1.506-.463.585 0 1.085.156 1.503.466.418.309.737.756.958 1.343.224.584.336 1.29.336 2.117 0 .833-.111 1.544-.332 2.133-.221.587-.541 1.036-.958 1.346-.418.309-.92.463-1.507.463zm0-.995c.517 0 .921-.252 1.212-.757.294-.504.44-1.234.44-2.189 0-.633-.067-1.169-.201-1.607-.132-.44-.322-.773-.571-.999a1.247 1.247 0 0 0-.88-.343c-.514 0-.918.254-1.211.76-.294.508-.442 1.237-.444 2.19 0 .636.066 1.174.197 1.614.135.438.325.77.571.996.246.223.542.335.887.335zm6.778.996c-.589-.003-1.092-.158-1.51-.466-.418-.309-.737-.757-.958-1.346-.221-.59-.332-1.3-.332-2.13 0-.827.111-1.534.332-2.121.224-.587.544-1.034.962-1.342.42-.309.922-.463 1.506-.463s1.085.156 1.503.466c.417.309.737.756.958 1.343.224.584.336 1.29.336 2.117 0 .833-.111 1.544-.332 2.133-.221.587-.541 1.036-.958 1.346-.418.309-.92.463-1.507.463zm0-.996c.517 0 .921-.252 1.212-.757.293-.504.44-1.234.44-2.189 0-.633-.067-1.169-.201-1.607-.132-.44-.322-.773-.571-.999a1.247 1.247 0 0 0-.88-.343c-.514 0-.918.254-1.212.76-.293.508-.441 1.237-.443 2.19 0 .636.066 1.174.197 1.614.135.438.325.77.571.996.246.223.542.335.887.335zm6.778.996c-.589-.003-1.092-.158-1.51-.466-.418-.309-.737-.757-.958-1.346-.222-.59-.332-1.3-.332-2.13 0-.827.11-1.534.332-2.121.223-.587.544-1.034.962-1.342.42-.309.922-.463 1.506-.463s1.085.156 1.503.466c.417.309.737.756.958 1.343.224.584.336 1.29.336 2.117 0 .833-.111 1.544-.332 2.133-.222.587-.541 1.036-.959 1.346-.417.309-.919.463-1.506.463zm0-.996c.517 0 .921-.252 1.212-.757.293-.504.44-1.234.44-2.189 0-.633-.067-1.169-.202-1.607-.131-.44-.321-.773-.57-.999a1.247 1.247 0 0 0-.88-.343c-.515 0-.918.254-1.212.76-.293.508-.441 1.237-.444 2.19 0 .636.066 1.174.198 1.614.134.438.325.77.571.996.246.223.542.335.887.335z"/><rect width="34.125" height="18.625" x="183.438" y="56.438" fill="#F9FAFB" fill-opacity=".1" rx="9.313"/><rect width="34.125" height="18.625" x="183.438" y="56.438" stroke="#9EA3BF" stroke-width=".875" rx="9.313"/><path fill="#fff" d="M193.72 69.854c-.535 0-1.007-.092-1.417-.275a2.316 2.316 0 0 1-.958-.761 1.82 1.82 0 0 1-.343-1.104 1.94 1.94 0 0 1 .753-1.573c.233-.184.494-.301.783-.35v-.046a1.544 1.544 0 0 1-.914-.611 1.796 1.796 0 0 1-.339-1.089c-.002-.39.101-.738.309-1.044a2.17 2.17 0 0 1 .869-.727 2.872 2.872 0 0 1 1.257-.265c.465 0 .88.09 1.245.269.368.176.658.419.869.727.211.305.318.652.321 1.04a1.82 1.82 0 0 1-.351 1.089c-.231.316-.532.52-.902.611v.045c.286.05.543.167.772.35.231.182.415.41.552.683.139.27.21.568.212.891a1.87 1.87 0 0 1-.35 1.104 2.322 2.322 0 0 1-.962.76c-.408.184-.877.276-1.406.276zm0-.943c.316 0 .589-.052.82-.157.231-.107.41-.254.537-.443.127-.192.191-.415.194-.671a1.26 1.26 0 0 0-.209-.705 1.395 1.395 0 0 0-.548-.481 1.737 1.737 0 0 0-.794-.175c-.301 0-.568.058-.802.175a1.4 1.4 0 0 0-.552.48c-.134.205-.2.44-.197.706-.003.256.058.48.182.67.127.19.307.337.541.444.234.105.51.157.828.157zm0-3.553c.253 0 .478-.051.675-.153a1.16 1.16 0 0 0 .637-1.063 1.175 1.175 0 0 0-.171-.626 1.09 1.09 0 0 0-.459-.414 1.49 1.49 0 0 0-.682-.15c-.264 0-.495.05-.694.15a1.088 1.088 0 0 0-.458.414 1.15 1.15 0 0 0-.161.626 1.18 1.18 0 0 0 .164.638c.112.181.266.323.463.425.199.102.427.153.686.153zm6.712 4.519c-.589-.003-1.092-.158-1.51-.466-.417-.308-.737-.757-.958-1.346-.221-.59-.332-1.3-.332-2.13 0-.827.111-1.534.332-2.121.224-.587.544-1.034.962-1.342.42-.309.922-.463 1.506-.463.585 0 1.085.156 1.503.466.418.309.737.756.958 1.343.224.584.336 1.29.336 2.118 0 .832-.111 1.543-.332 2.132-.221.587-.541 1.036-.958 1.346-.418.309-.92.463-1.507.463zm0-.996c.517 0 .921-.252 1.212-.757.294-.504.44-1.234.44-2.188 0-.634-.067-1.17-.201-1.608-.132-.44-.322-.773-.571-.999a1.247 1.247 0 0 0-.88-.343c-.514 0-.918.254-1.211.76-.294.508-.442 1.238-.444 2.19 0 .636.066 1.174.197 1.614.135.438.325.77.571.996.246.223.542.335.887.335zm6.778.996c-.589-.003-1.092-.158-1.51-.466-.417-.308-.737-.757-.958-1.346-.221-.59-.332-1.3-.332-2.13 0-.827.111-1.534.332-2.121.224-.587.544-1.034.962-1.342.42-.309.922-.463 1.506-.463s1.085.156 1.503.466c.418.309.737.756.958 1.343.224.584.336 1.29.336 2.118 0 .832-.111 1.543-.332 2.132-.221.587-.541 1.036-.958 1.346-.418.309-.92.463-1.507.463zm0-.996c.517 0 .921-.252 1.212-.757.293-.504.44-1.234.44-2.188 0-.634-.067-1.17-.201-1.608-.132-.44-.322-.773-.571-.999a1.247 1.247 0 0 0-.88-.343c-.514 0-.918.254-1.212.76-.293.508-.441 1.238-.443 2.19 0 .636.066 1.174.197 1.614.135.438.325.77.571.996.246.223.542.335.887.335z"/><rect width="34.125" height="18.625" x="183.438" y="84.438" fill="#F9FAFB" fill-opacity=".1" rx="9.313"/><rect width="34.125" height="18.625" x="183.438" y="84.438" stroke="#9EA3BF" stroke-width=".875" rx="9.313"/><path fill="#fff" d="M193.785 97.854a3.087 3.087 0 0 1-1.007-.186 2.365 2.365 0 0 1-.895-.597c-.268-.278-.483-.652-.645-1.122-.159-.47-.238-1.056-.238-1.76 0-.666.066-1.258.197-1.775.135-.517.327-.953.578-1.308a2.57 2.57 0 0 1 .91-.817 2.54 2.54 0 0 1 1.197-.28c.455 0 .859.09 1.212.269.353.179.639.426.857.742.222.315.362.675.422 1.077h-1.137a1.475 1.475 0 0 0-.459-.779c-.229-.201-.527-.302-.895-.302-.559 0-.996.244-1.309.73-.31.488-.467 1.165-.47 2.033h.056c.132-.216.294-.4.485-.552a2.285 2.285 0 0 1 1.41-.481c.442 0 .842.108 1.2.324.361.214.648.51.862.888.213.378.32.81.32 1.297 0 .488-.11.929-.332 1.324a2.431 2.431 0 0 1-.924.94c-.398.228-.863.34-1.395.335zm-.004-.97c.294 0 .556-.071.787-.215a1.56 1.56 0 0 0 .548-.582c.134-.244.202-.516.202-.817 0-.293-.066-.56-.198-.801a1.488 1.488 0 0 0-.537-.575 1.43 1.43 0 0 0-.776-.212 1.49 1.49 0 0 0-1.107.477c-.142.15-.254.32-.336.515a1.578 1.578 0 0 0-.119.608 1.62 1.62 0 0 0 .746 1.383c.234.147.497.22.79.22zm6.672.993c-.589-.003-1.093-.158-1.51-.466-.418-.308-.737-.757-.958-1.346-.222-.59-.332-1.3-.332-2.13 0-.827.11-1.534.332-2.121.223-.587.544-1.034.962-1.342.42-.309.922-.463 1.506-.463s1.085.156 1.503.466c.417.309.737.756.958 1.343.224.584.335 1.29.335 2.118 0 .832-.11 1.543-.331 2.132-.222.587-.541 1.036-.959 1.346-.417.309-.919.463-1.506.463zm0-.996c.517 0 .921-.252 1.212-.757.293-.504.44-1.234.44-2.188 0-.634-.067-1.17-.202-1.608-.131-.44-.322-.773-.57-.999a1.25 1.25 0 0 0-.88-.343c-.515 0-.919.254-1.212.76-.293.508-.441 1.238-.444 2.19 0 .636.066 1.174.198 1.614.134.438.324.77.57.996.247.223.542.335.888.335zm6.778.996c-.589-.003-1.093-.158-1.51-.466-.418-.308-.737-.757-.959-1.346-.221-.59-.331-1.3-.331-2.13 0-.827.11-1.534.331-2.121.224-.587.545-1.034.962-1.342.42-.309.923-.463 1.507-.463.584 0 1.085.156 1.502.466.418.309.737.756.959 1.343.223.584.335 1.29.335 2.118 0 .832-.11 1.543-.332 2.132-.221.587-.54 1.036-.958 1.346-.417.309-.92.463-1.506.463zm0-.996c.517 0 .921-.252 1.212-.757.293-.504.44-1.234.44-2.188 0-.634-.068-1.17-.202-1.608-.132-.44-.322-.773-.57-.999a1.25 1.25 0 0 0-.88-.343c-.515 0-.919.254-1.212.76-.293.508-.441 1.238-.444 2.19 0 .636.066 1.174.198 1.614.134.438.324.77.57.996.246.223.542.335.888.335z"/><rect width="34.125" height="18.625" x="183.438" y="112.438" fill="#F9FAFB" fill-opacity=".1" rx="9.313"/><rect width="34.125" height="18.625" x="183.438" y="112.438" stroke="#9EA3BF" stroke-width=".875" rx="9.313"/><path fill="#fff" d="M190.861 124.259v-.933l3.3-5.212h.735v1.372h-.466l-2.361 3.736v.06h4.523v.977h-5.731zm3.621 1.491v-1.775l.007-.425v-5.436h1.093v7.636h-1.1zm6.068.127c-.589-.003-1.092-.158-1.51-.466-.417-.309-.737-.757-.958-1.346-.221-.59-.332-1.299-.332-2.129 0-.828.111-1.535.332-2.122.224-.587.544-1.034.962-1.342.42-.309.922-.463 1.506-.463s1.085.156 1.503.466c.418.309.737.756.958 1.343.224.584.336 1.29.336 2.118 0 .832-.111 1.543-.332 2.132-.221.587-.541 1.036-.958 1.346-.418.309-.92.463-1.507.463zm0-.996c.517 0 .921-.252 1.212-.757.293-.504.44-1.234.44-2.188 0-.634-.067-1.17-.201-1.608-.132-.44-.322-.773-.571-.999a1.246 1.246 0 0 0-.88-.343c-.514 0-.918.254-1.211.761-.294.507-.442 1.236-.444 2.189 0 .636.066 1.174.197 1.614.135.438.325.769.571.996.246.223.542.335.887.335zm6.778.996c-.589-.003-1.092-.158-1.51-.466-.418-.309-.737-.757-.958-1.346-.221-.59-.332-1.299-.332-2.129 0-.828.111-1.535.332-2.122.223-.587.544-1.034.962-1.342.42-.309.922-.463 1.506-.463s1.085.156 1.503.466c.417.309.737.756.958 1.343.224.584.336 1.29.336 2.118 0 .832-.111 1.543-.332 2.132-.221.587-.541 1.036-.958 1.346-.418.309-.92.463-1.507.463zm0-.996c.517 0 .921-.252 1.212-.757.293-.504.44-1.234.44-2.188 0-.634-.067-1.17-.201-1.608-.132-.44-.322-.773-.571-.999a1.246 1.246 0 0 0-.88-.343c-.514 0-.918.254-1.212.761-.293.507-.441 1.236-.443 2.189 0 .636.066 1.174.197 1.614.134.438.325.769.571.996.246.223.542.335.887.335z"/><rect width="33.125" height="18.625" x="183.938" y="140.438" fill="#F9FAFB" fill-opacity=".1" rx="9.313"/><rect width="33.125" height="18.625" x="183.938" y="140.438" stroke="#9EA3BF" stroke-width=".875" rx="9.313"/><path fill="#fff" d="M191.237 153.75v-.835l2.584-2.677c.276-.291.503-.546.682-.765.182-.221.317-.431.407-.63.089-.199.134-.41.134-.634 0-.253-.06-.472-.179-.656a1.17 1.17 0 0 0-.488-.429 1.556 1.556 0 0 0-.698-.153c-.273 0-.512.056-.716.168-.203.112-.36.27-.469.474a1.48 1.48 0 0 0-.164.715h-1.1c0-.464.106-.871.32-1.219.214-.348.507-.618.88-.809a2.716 2.716 0 0 1 1.272-.291c.479 0 .902.096 1.267.287.368.189.655.448.862.776.206.326.309.693.309 1.104 0 .283-.053.56-.16.831-.105.271-.287.573-.548.906-.261.331-.624.732-1.089 1.205l-1.518 1.588v.056h3.438v.988h-5.026zm9.098.127c-.589-.003-1.093-.158-1.51-.466-.418-.309-.737-.757-.958-1.346-.222-.59-.332-1.299-.332-2.129 0-.828.11-1.535.332-2.122.223-.587.544-1.034.962-1.342.42-.309.922-.463 1.506-.463s1.085.156 1.503.466c.417.309.737.756.958 1.343.224.584.336 1.29.336 2.118 0 .832-.111 1.543-.332 2.132-.222.587-.541 1.036-.959 1.346-.417.309-.919.463-1.506.463zm0-.996c.517 0 .921-.252 1.212-.757.293-.504.44-1.234.44-2.188 0-.634-.067-1.17-.202-1.608-.131-.44-.321-.773-.57-.999a1.246 1.246 0 0 0-.88-.343c-.515 0-.918.254-1.212.761-.293.507-.441 1.236-.444 2.189 0 .636.066 1.174.198 1.614.134.438.324.769.571.996.246.223.541.335.887.335zm6.778.996c-.589-.003-1.093-.158-1.51-.466-.418-.309-.737-.757-.959-1.346-.221-.59-.331-1.299-.331-2.129 0-.828.11-1.535.331-2.122.224-.587.545-1.034.962-1.342.421-.309.923-.463 1.507-.463.584 0 1.085.156 1.503.466.417.309.737.756.958 1.343.223.584.335 1.29.335 2.118 0 .832-.11 1.543-.331 2.132-.222.587-.541 1.036-.959 1.346-.417.309-.92.463-1.506.463zm0-.996c.517 0 .921-.252 1.212-.757.293-.504.44-1.234.44-2.188 0-.634-.067-1.17-.202-1.608-.131-.44-.322-.773-.57-.999a1.248 1.248 0 0 0-.88-.343c-.515 0-.919.254-1.212.761-.293.507-.441 1.236-.444 2.189 0 .636.066 1.174.198 1.614.134.438.324.769.57.996.247.223.542.335.888.335z"/><path fill="#9EA3BF" d="M188.506 3.09h1.631l2.836 6.926h.105l2.836-6.925h1.631V12h-1.279V5.553h-.082l-2.628 6.434h-1.061l-2.628-6.438h-.082V12h-1.279V3.09zm13.704 9.045c-.627 0-1.173-.144-1.64-.43a2.904 2.904 0 0 1-1.088-1.206c-.258-.516-.387-1.12-.387-1.81 0-.693.129-1.299.387-1.818a2.906 2.906 0 0 1 1.088-1.21c.467-.286 1.013-.43 1.64-.43.626 0 1.173.144 1.64.43.467.288.829.691 1.087 1.21.258.52.387 1.125.387 1.819 0 .69-.129 1.293-.387 1.81-.258.515-.62.917-1.087 1.204-.467.287-1.014.43-1.64.43zm.004-1.092c.406 0 .742-.107 1.009-.322.267-.214.464-.5.592-.857.13-.357.196-.75.196-1.179 0-.426-.066-.818-.196-1.174a1.916 1.916 0 0 0-.592-.866c-.267-.218-.603-.326-1.009-.326-.409 0-.748.108-1.018.326a1.946 1.946 0 0 0-.596.866 3.48 3.48 0 0 0-.191 1.174c0 .43.064.822.191 1.18.131.356.329.642.596.856.27.215.609.322 1.018.322zm5.863-3.01V12h-1.301V5.318h1.249v1.088h.082c.154-.354.395-.638.723-.853.33-.215.746-.322 1.248-.322.455 0 .854.096 1.196.287.342.189.608.47.796.844.189.374.283.837.283 1.388V12h-1.301V7.907c0-.485-.126-.863-.378-1.136-.252-.275-.599-.413-1.04-.413-.301 0-.57.065-.804.196a1.4 1.4 0 0 0-.553.574c-.133.25-.2.55-.2.905zm108.565 63.59v-1.157h6.895v1.157h-2.78v7.752h-1.34v-7.752h-2.775zm11.638 4.981v-3.91h1.305v6.681h-1.279v-1.157h-.07c-.154.357-.4.654-.739.892-.337.234-.756.352-1.258.352-.429 0-.809-.094-1.139-.283a1.99 1.99 0 0 1-.775-.848c-.185-.374-.278-.837-.278-1.388v-4.25h1.301v4.094c0 .455.126.817.378 1.087s.58.405.983.405c.244 0 .486-.061.727-.183a1.53 1.53 0 0 0 .604-.552c.163-.247.242-.56.24-.94zm5.932 2.906c-.658 0-1.225-.14-1.701-.422a2.86 2.86 0 0 1-1.096-1.196c-.255-.517-.383-1.121-.383-1.814 0-.685.128-1.288.383-1.81.258-.522.618-.93 1.079-1.222.464-.293 1.006-.44 1.627-.44.377 0 .742.063 1.096.187.354.125.671.32.953.587.281.267.503.614.665 1.04.163.424.244.938.244 1.544v.462h-5.312v-.975h4.037a1.91 1.91 0 0 0-.209-.909 1.579 1.579 0 0 0-.587-.63 1.64 1.64 0 0 0-.879-.231 1.7 1.7 0 0 0-.957.27 1.815 1.815 0 0 0-.626.695 2.01 2.01 0 0 0-.218.927v.761c0 .447.079.827.235 1.14.16.313.382.552.666.718.284.162.616.243.996.243.247 0 .471-.034.674-.104a1.393 1.393 0 0 0 .866-.848l1.231.221c-.098.363-.275.68-.531.953-.252.27-.569.48-.952.631-.38.148-.814.222-1.301.222zM345.386 222l-2.471-8.909h1.414l1.735 6.899h.083l1.805-6.899h1.401l1.805 6.904h.083l1.731-6.904h1.419L351.915 222h-1.353l-1.874-6.673h-.07L346.743 222h-1.357zm12.348.135c-.659 0-1.226-.141-1.701-.422a2.859 2.859 0 0 1-1.096-1.196c-.256-.517-.383-1.121-.383-1.814 0-.685.127-1.288.383-1.81.258-.522.617-.93 1.078-1.222.464-.293 1.007-.44 1.627-.44.377 0 .743.063 1.097.187.353.125.671.321.952.588.282.266.503.613.666 1.039.162.424.243.938.243 1.544v.462h-5.311v-.975h4.037c0-.342-.07-.645-.209-.909a1.58 1.58 0 0 0-.587-.631 1.65 1.65 0 0 0-.879-.23c-.365 0-.684.09-.957.269-.27.177-.479.409-.626.696a2.012 2.012 0 0 0-.218.927v.761c0 .447.078.827.235 1.14.159.313.381.552.666.718.284.162.616.243.996.243.246 0 .471-.034.674-.104.203-.073.378-.18.526-.322.148-.142.261-.318.34-.526l1.231.222c-.099.362-.276.68-.531.952-.252.27-.57.48-.953.631a3.56 3.56 0 0 1-1.3.222zm6.811-.004c-.54 0-1.021-.138-1.444-.414-.421-.278-.751-.674-.992-1.187-.238-.517-.357-1.136-.357-1.858 0-.722.12-1.34.361-1.853.244-.513.577-.906 1.001-1.179a2.597 2.597 0 0 1 1.44-.409c.414 0 .748.07 1 .209.255.136.453.296.592.479.142.182.252.343.33.482h.079v-3.31h1.3V222h-1.27v-1.04h-.109a3.428 3.428 0 0 1-.339.488 1.89 1.89 0 0 1-.6.478c-.255.136-.586.205-.992.205zm.287-1.11c.374 0 .69-.098.948-.296.261-.2.459-.477.592-.83.136-.354.204-.766.204-1.236 0-.464-.066-.87-.2-1.218a1.784 1.784 0 0 0-.587-.813c-.258-.195-.577-.292-.957-.292-.392 0-.718.102-.979.305s-.458.48-.591.831a3.37 3.37 0 0 0-.196 1.187c0 .447.067.848.2 1.205.133.357.331.64.592.848.263.206.588.309.974.309zm-99.734 92.102v-1.157h6.894v1.157h-2.779v7.752h-1.34v-7.752h-2.775zm9.614 3.785v3.967h-1.3v-8.909h1.283v3.315h.083c.156-.36.396-.646.717-.857.322-.212.743-.318 1.262-.318.458 0 .858.094 1.201.283.345.188.612.47.8.844.191.371.287.835.287 1.392v4.25h-1.301v-4.093c0-.491-.126-.871-.378-1.14-.252-.273-.603-.409-1.053-.409-.307 0-.583.065-.826.196-.241.13-.431.322-.57.574-.136.249-.205.551-.205.905zm10.302 1.196v-3.911h1.305v6.682h-1.279v-1.157h-.07c-.154.357-.4.654-.739.892-.337.235-.756.352-1.258.352-.429 0-.809-.094-1.139-.283a1.987 1.987 0 0 1-.775-.848c-.185-.374-.278-.837-.278-1.388v-4.25h1.301v4.094c0 .455.126.817.378 1.087s.58.405.983.405c.244 0 .486-.061.727-.183.243-.122.445-.306.604-.552.163-.247.242-.56.24-.94zm-163.083 2.771v-8.909h5.524v1.157h-4.18v2.715h3.785v1.152h-3.785v3.885h-1.344zm6.989 0v-6.682h1.258v1.062h.069a1.62 1.62 0 0 1 .644-.849c.31-.208.661-.313 1.053-.313a5.371 5.371 0 0 1 .552.031v1.244a2.147 2.147 0 0 0-.278-.048 2.705 2.705 0 0 0-.4-.031c-.308 0-.582.066-.823.196a1.46 1.46 0 0 0-.774 1.31v4.08h-1.301zm4.702 0v-6.682h1.301v6.682h-1.301zm.657-7.713a.824.824 0 0 1-.583-.226.733.733 0 0 1-.239-.548c0-.215.079-.397.239-.548a.816.816 0 0 1 .583-.231.8.8 0 0 1 .578.231.718.718 0 0 1 .244.548.728.728 0 0 1-.244.548.809.809 0 0 1-.578.226zm-91.274-97.731a1.27 1.27 0 0 0-.574-.957c-.337-.229-.76-.343-1.27-.343-.366 0-.682.058-.949.174a1.459 1.459 0 0 0-.622.469 1.111 1.111 0 0 0-.217.675c0 .211.049.394.148.548.101.154.233.283.395.387.166.101.343.187.531.257.189.066.37.121.544.165l.87.226c.284.07.576.164.874.283.299.119.576.275.831.47.255.194.461.435.618.722.16.287.24.631.24 1.031 0 .504-.131.953-.392 1.344-.258.392-.634.7-1.127.927-.49.226-1.083.339-1.78.339-.666 0-1.243-.106-1.73-.318a2.664 2.664 0 0 1-1.145-.9c-.275-.392-.428-.856-.456-1.392h1.348c.026.322.13.59.313.805.186.211.422.369.71.474.29.101.607.152.952.152.38 0 .718-.059 1.014-.178.298-.122.533-.29.704-.505.172-.217.257-.471.257-.761 0-.264-.075-.48-.226-.648a1.66 1.66 0 0 0-.605-.418 5.922 5.922 0 0 0-.857-.291l-1.053-.288c-.713-.194-1.279-.48-1.696-.857-.415-.377-.622-.875-.622-1.496 0-.513.139-.961.417-1.344.279-.383.656-.68 1.131-.892.476-.215 1.013-.322 1.61-.322.603 0 1.135.106 1.596.318.465.211.83.503 1.097.874.267.368.406.792.417 1.27h-1.296zm4.865 6.717c-.424 0-.807-.078-1.149-.235a1.936 1.936 0 0 1-.813-.692c-.198-.301-.296-.671-.296-1.109 0-.377.072-.687.217-.931a1.6 1.6 0 0 1 .588-.578c.246-.143.522-.25.826-.322a8.2 8.2 0 0 1 .931-.166l.974-.113c.25-.032.431-.082.544-.152.113-.07.17-.183.17-.339v-.031c0-.38-.107-.674-.322-.883-.212-.209-.528-.313-.948-.313-.438 0-.783.097-1.036.291-.25.192-.422.405-.517.64l-1.223-.279c.145-.406.357-.733.635-.983.282-.252.605-.435.97-.548.366-.116.75-.174 1.153-.174.267 0 .55.032.849.096.301.061.582.174.843.339.264.165.48.402.649.709.168.305.252.701.252 1.188V222h-1.27v-.914h-.053c-.084.169-.21.334-.378.496a1.997 1.997 0 0 1-.648.405 2.52 2.52 0 0 1-.948.161zm.282-1.044c.36 0 .667-.071.922-.213.259-.142.454-.328.588-.557.136-.232.204-.48.204-.744v-.861a.676.676 0 0 1-.27.13c-.13.038-.28.071-.447.1l-.492.074-.4.052a3.255 3.255 0 0 0-.692.161 1.195 1.195 0 0 0-.496.327c-.122.139-.183.324-.183.556 0 .322.12.566.357.731.238.163.541.244.91.244zm7.867-5.786v1.044h-3.65v-1.044h3.65zm-2.672-1.601h1.301v6.321c0 .252.038.442.113.57.076.125.173.21.292.257.122.043.254.065.396.065.104 0 .195-.007.274-.022a7.01 7.01 0 0 0 .182-.035l.235 1.075a2.55 2.55 0 0 1-.844.139 2.28 2.28 0 0 1-.957-.183 1.642 1.642 0 0 1-.718-.591c-.182-.267-.274-.602-.274-1.005v-6.591zM67.468 72.806a1.27 1.27 0 0 0-.574-.957c-.337-.229-.76-.343-1.27-.343-.366 0-.682.058-.949.174a1.46 1.46 0 0 0-.622.47 1.11 1.11 0 0 0-.218.674 1 1 0 0 0 .148.548c.102.153.234.283.396.387.165.102.342.187.53.257.19.066.37.121.545.165l.87.226c.284.07.575.164.874.283.299.119.576.275.83.47.256.194.462.435.619.722.16.287.239.63.239 1.03 0 .505-.13.953-.392 1.345-.258.391-.633.7-1.126.927-.49.226-1.084.339-1.78.339-.666 0-1.244-.106-1.73-.318-.488-.211-.87-.511-1.145-.9-.275-.392-.428-.856-.457-1.392h1.349c.026.322.13.59.313.805.186.211.422.37.71.474.29.101.607.152.952.152a2.7 2.7 0 0 0 1.013-.178c.3-.122.534-.29.705-.505.171-.218.257-.471.257-.761a.937.937 0 0 0-.226-.648 1.671 1.671 0 0 0-.605-.418 5.91 5.91 0 0 0-.857-.291l-1.053-.288c-.713-.194-1.279-.48-1.696-.857-.415-.377-.622-.875-.622-1.496 0-.513.139-.961.417-1.344.279-.383.656-.68 1.131-.892.476-.215 1.012-.322 1.61-.322.603 0 1.135.106 1.596.318.464.211.83.503 1.097.874.266.368.406.792.417 1.27h-1.296zm7.153 3.798v-3.91h1.305v6.681h-1.28v-1.157h-.069c-.154.357-.4.654-.74.892-.336.234-.755.352-1.257.352-.429 0-.809-.094-1.14-.283a1.987 1.987 0 0 1-.774-.848c-.185-.374-.278-.837-.278-1.388v-4.25h1.3v4.094c0 .455.127.817.379 1.087s.58.405.983.405c.244 0 .486-.061.727-.183a1.53 1.53 0 0 0 .604-.552c.163-.247.242-.56.24-.94zm4.353-1.196v3.967h-1.3v-6.682h1.248v1.088h.082a1.91 1.91 0 0 1 .722-.853c.331-.215.747-.322 1.249-.322.455 0 .854.096 1.196.287.342.189.608.47.796.844.189.374.283.837.283 1.388v4.25h-1.3v-4.094c0-.484-.127-.862-.38-1.135-.251-.275-.598-.413-1.039-.413-.301 0-.57.065-.805.196a1.41 1.41 0 0 0-.552.574c-.133.25-.2.55-.2.905z"/><path fill="#3A6EF2" d="m287.808 106.312-86.625-12.25L113 106.313l6.125 87.938 45.063 56.438 84.874 25.374 5.688-87.937 33.058-81.813z" opacity=".2"/><path stroke="#3A6EF2" stroke-linecap="round" stroke-linejoin="round" stroke-width="1.75" d="m287.808 106.312-86.625-12.25L113 106.313l6.125 87.938 45.063 56.438 84.874 25.374 5.688-87.937 33.058-81.813z"/><path fill="#EE46BC" d="m309.875 88.813-108.692 33.249-110.058-33.25v111.563h97.563l47.687 50.313-9.187-69.126 82.687-92.75z" opacity=".2"/><path stroke="#EE46BC" stroke-linecap="round" stroke-linejoin="round" stroke-width="1.75" d="m309.875 88.813-108.692 33.249-110.058-33.25v111.563h97.563l47.687 50.313-9.187-69.126 82.687-92.75z"/><path fill="#7F56D9" d="m265.688 123.812-64.505-57.75-43.995 75.25-92.313 65.626 111.563 18.812 36.312-25.375 68.688-6.563-15.75-70z" opacity=".2"/><path stroke="#7F56D9" stroke-linecap="round" stroke-linejoin="round" stroke-width="1.75" d="m265.688 123.812-64.505-57.75-43.995 75.25-92.313 65.626 111.563 18.812 36.312-25.375 68.688-6.563-15.75-70z"/></svg>