<svg xmlns="http://www.w3.org/2000/svg" width="203" height="57" fill="none"><circle cx="24.606" cy="28.501" r="24.606" fill="#101636"/><g clip-path="url(#a)"><path fill="#3A6EF2" fill-rule="evenodd" d="M24.363 18.13c-.083-.958.629-1.86 1.71-1.928.806-.055 1.449.314 1.86 1.025.2.35.404.698.608 1.049.322.554.646 1.11.964 1.671.119.205.242.407.365.61.246.403.492.807.702 1.236.602 1.216-.123 2.556-1.477 2.734-.766.109-1.518-.301-1.956-1.04-.28-.478-.557-.96-.834-1.441-.277-.482-.554-.964-.835-1.443-.13-.225-.263-.447-.396-.67a36.891 36.891 0 0 1-.397-.67c-.205-.355-.383-.724-.328-1.12l.014-.014zm4.021 10.293c.082 1.9-1.56 3.609-3.529 3.69-1.942.083-3.72-1.571-3.761-3.553a3.67 3.67 0 0 1 3.584-3.705c1.942-.068 3.638 1.558 3.706 3.568zm-7.112 11.346c.383.656.93 1.039 1.655 1.025l.014.014c.848.027 1.518-.41 1.819-1.135.287-.656.15-1.271-.178-1.86a180.12 180.12 0 0 0-1.463-2.51l-.301-.51-.24-.413a31.307 31.307 0 0 0-.622-1.05c-.438-.67-1.245-.97-2.038-.793-.78.178-1.327.78-1.45 1.586-.082.52.069.97.328 1.408l.662 1.138c.601 1.033 1.204 2.07 1.814 3.1zm11.133-8.667c-1.409.082-2.339-1.504-1.71-2.652.447-.833.915-1.651 1.383-2.47.178-.311.356-.622.532-.934.233-.424.465-.848.712-1.258.451-.779 1.217-1.134 2.051-.957.835.178 1.464.82 1.532 1.695.027.356-.068.766-.232 1.067a225.193 225.193 0 0 1-2.654 4.647c-.355.602-.916.889-1.614.875v-.013zm-19.846.246c-.725 1.312.178 2.87 1.655 2.87l-.014-.013c.725 0 1.313-.342 1.696-1.012a451.69 451.69 0 0 0 2.49-4.36c.164-.287.287-.616.314-.944a1.823 1.823 0 0 0-1.217-1.9c-.862-.3-1.737-.027-2.243.725-.22.335-.424.693-.624 1.046l-.183.32-.505.877c-.46.797-.918 1.59-1.369 2.39zm17.712 1.873c.305 0 .611-.003.918-.006a46.644 46.644 0 0 1 1.845.006c.985.041 1.682.834 1.723 1.846.028.97-.615 1.736-1.587 1.873l-.12.015a1.931 1.931 0 0 1-.262.026h-5.225c-.506 0-.971-.15-1.327-.534-.547-.588-.684-1.285-.397-2.023.288-.738.862-1.175 1.669-1.203a46.644 46.644 0 0 1 1.844-.006c.308.003.614.006.919.006zM14.528 22.367c.192.82.862 1.408 1.71 1.422v.013c.39.006 1.266.002 2.206-.003 1.241-.006 2.591-.012 3.074.003.766.028 1.313-.3 1.723-.915.739-1.094.055-2.652-1.258-2.83-.41-.055-4.254-.055-5.745 0-1.23.04-1.983 1.107-1.71 2.31z" clip-rule="evenodd"/></g><path fill="#fff" d="M56.594 28.813c0-4.867 3.422-9.155 8.593-9.155 3.326 0 6.457 1.855 7.452 5.132l-3.495.867c-.753-1.663-2.137-2.698-4.006-2.698-3.131 0-4.806 2.963-4.806 5.806 0 2.867 1.626 5.661 4.855 5.661 1.893 0 3.35-1.012 4.127-2.698l3.495.867c-1.092 3.325-4.15 5.132-7.622 5.132-5.05 0-8.593-3.879-8.593-8.914zm18.332 8.432V19.273h3.398v17.972h-3.398zm5.631-6.36c0-3.783 2.864-6.722 6.748-6.722 3.811 0 6.651 2.843 6.651 6.698 0 3.806-2.816 6.745-6.748 6.745-3.811 0-6.651-2.89-6.651-6.721zm6.7-3.686c-2.015 0-3.23 1.783-3.23 3.686 0 1.855 1.19 3.686 3.23 3.686 2.014 0 3.228-1.783 3.228-3.686 0-1.88-1.165-3.686-3.229-3.686zm8.933-2.675h3.398v7.108c0 1.518.704 2.939 2.428 2.939 1.723 0 2.427-1.421 2.427-2.94v-7.107h3.399v7.035c0 3.47-2.161 6.047-5.875 6.047-3.592 0-5.777-2.457-5.777-6.047v-7.035zm19.754 13.082c-3.592 0-5.874-3.252-5.874-6.649 0-3.445 2.306-6.794 6.069-6.794 1.553 0 2.84.554 3.811 1.783v-6.674h3.398v17.973h-3.131l-.097-1.855c-.947 1.422-2.452 2.216-4.176 2.216zm-2.403-6.721c0 1.855 1.19 3.686 3.229 3.686 2.015 0 3.228-1.783 3.228-3.686 0-1.88-1.165-3.686-3.228-3.686-2.015 0-3.229 1.783-3.229 3.686zm12.736 6.36V20.14h5.535c3.69 0 6.773 1.662 6.773 5.782 0 3.782-3.18 5.734-6.797 5.734-.607 0-1.238-.048-1.942-.169v5.758h-3.569zm3.569-14.07v5.3a12.17 12.17 0 0 0 1.796.145c1.821 0 3.277-.747 3.277-2.722 0-1.952-1.384-2.723-3.18-2.723h-1.893zm10.022 7.685c0-3.613 2.549-6.697 6.384-6.697 3.908 0 6.263 2.867 6.263 6.722v.843h-9.2c.267 1.686 1.286 3.036 3.131 3.036 1.214 0 2.136-.579 2.768-1.59l3.034.963c-.923 2.289-3.423 3.47-5.826 3.47-3.86 0-6.554-2.892-6.554-6.746zm6.384-4.095c-1.626 0-2.597 1.205-2.889 2.698h5.656c-.218-1.493-1.141-2.698-2.767-2.698zm12.329 10.841c-2.331 0-4.564-1.445-4.564-3.975 0-2.843 2.719-4.071 5.268-4.071 1.068 0 1.917.193 2.913.554v-.747c0-1.421-.826-2.433-2.306-2.433-1.044 0-2.015.506-2.379 1.518l-3.035-.603c.559-2.433 3.108-3.686 5.462-3.686 3.204 0 5.559 2.048 5.559 5.373v7.71h-3.034l-.097-1.495c-.777 1.277-2.331 1.855-3.787 1.855zm-1.214-4.143c0 1.084 1.092 1.542 2.039 1.542 1.481 0 2.792-1.012 2.792-2.578v-.12a7.908 7.908 0 0 0-1.141-.362 6.909 6.909 0 0 0-1.214-.12c-1.044 0-2.476.36-2.476 1.638zm10.84-14.19h3.326v10.431l4.758-5.18h3.981l-5.341 5.638 5.923 7.083h-4.296l-5.025-6.336v6.336h-3.326V19.273z"/><defs><clipPath id="a"><path fill="#fff" d="M12.303 16.197h24.606v24.606H12.303z"/></clipPath></defs></svg>